<svg width="25" height="25" viewBox="0 0 25 25" fill="none" xmlns="http://www.w3.org/2000/svg">
<path d="M22.4126 18.7947H1.92456V20.8387H22.4126V18.7947Z" fill="#B7782E"/>
<path d="M23.2906 20.1577H1.04663V22.2017H23.2906V20.1577Z" fill="#B7782E"/>
<path d="M24.1686 22.8827H0.168579V24.2457H24.1686V22.8827Z" fill="#B7782E"/>
<path d="M3.9725 8.91669H2.50952V19.1357H3.9725V8.91669Z" fill="#B7782E"/>
<path d="M6.89948 8.91669H5.72949V19.1357H6.89948V8.91669Z" fill="#B7782E"/>
<path d="M9.82654 8.91669H8.36353V19.1357H9.82654V8.91669Z" fill="#B7782E"/>
<path d="M12.7535 8.91669H11.2905V19.1357H12.7535V8.91669Z" fill="#B7782E"/>
<path d="M15.9735 8.91669H14.5095V19.1357H15.9735V8.91669Z" fill="#B7782E"/>
<path d="M18.6065 8.91669H17.1436V19.1357H18.6065V8.91669Z" fill="#B7782E"/>
<path d="M21.5345 8.91669H20.3635V19.1357H21.5345V8.91669Z" fill="#B7782E"/>
<path d="M23.3426 8.91669H12.1396H0.896606L0.292603 7.14468L12.1386 0.246674L23.9516 7.13367L23.3426 8.91669ZM12.1256 2.50067C11.4226 2.50067 10.8536 3.16369 10.8536 3.98169C10.8536 4.79869 11.4226 5.46167 12.1256 5.46167C12.8286 5.46167 13.3976 4.79869 13.3976 3.98169C13.3976 3.16369 12.8276 2.50067 12.1256 2.50067Z" fill="#B7782E"/>
</svg>
