<svg width="142" height="119" viewBox="0 0 142 119" fill="none" xmlns="http://www.w3.org/2000/svg">
<g filter="url(#filter0_i_205_2)">
<rect y="0.919006" width="142" height="118" rx="26" fill="#F1DBC2"/>
</g>
<path d="M70.4763 69.8735L60.4849 62.8016V73.3004V73.4004C60.4849 76.2005 65.6966 79.919 71.6168 79.919C77.5386 79.919 83.931 75.7304 83.931 72.3636V62.3565L72.5714 69.8735C71.9199 70.3202 71.1663 70.3335 70.4763 69.8735Z" fill="#642908"/>
<path d="M51.0428 54.4529C51.0847 53.7046 51.2003 53.0462 51.3912 52.8012C51.0412 53.2496 50.929 53.8796 51.0428 54.4529Z" fill="#642908"/>
<path d="M90.4273 52.8012C90.6182 53.0462 90.7338 53.7046 90.7757 54.4513C90.8879 53.8796 90.7756 53.2496 90.4273 52.8012Z" fill="#642908"/>
<path d="M53.786 56.6381V55.5797H55.4607V57.4447L60.4849 60.6733V58.9132H83.931V60.2299L90.8794 55.248C91.0553 55.0213 90.9431 54.743 91 54.453C90.9598 53.7063 90.7304 53.0479 90.5395 52.8029L71.9165 40.304C71.1797 39.7907 70.7208 39.7907 69.9856 40.304L51.4046 52.8029C51.2136 53.0479 51.0914 53.7063 51.0495 54.4547C51.1081 54.7447 51.3811 55.0213 51.5586 55.2497L53.786 56.6381Z" fill="#642908"/>
<path d="M60.4849 58.9131V60.6733L70.4763 67.7452C71.1679 68.2036 71.9199 68.1919 72.5714 67.7452L83.931 60.2282V58.9131H60.4849Z" fill="#642908"/>
<path d="M53.7861 72.0888C53.7861 72.0054 54.3522 71.9588 54.5347 71.9588C54.7876 71.9588 53.7861 72.0537 55.4609 72.2121V54.6797L53.7861 53.873V72.0888Z" fill="#642908"/>
<path d="M53.9199 56.638V58.7664L55.5813 59.5731V57.4447L53.9199 56.638Z" fill="#642908"/>
<path d="M53.9199 55.388V56.6381L55.5813 57.4447V55.388H53.9199Z" fill="#642908"/>
<path d="M53.92 73.7438V72.087C53.92 72.3437 52.8633 72.9554 52.8633 73.6705C52.8633 74.6155 53.3439 75.3839 54.0808 75.3839C54.816 75.3839 55.8208 74.6155 55.8208 73.6705C55.8208 73.0488 55.5813 72.5104 55.5813 72.2104V73.7438H53.92Z" fill="#642908"/>
<path d="M53.9199 72.0888V73.7454H55.5813V72.212C53.9199 72.0537 54.9147 71.9587 54.6619 71.9587C54.481 71.9587 53.9199 72.0037 53.9199 72.0888Z" fill="#642908"/>
<defs>
<filter id="filter0_i_205_2" x="-5" y="-26.081" width="147" height="145" filterUnits="userSpaceOnUse" color-interpolation-filters="sRGB">
<feFlood flood-opacity="0" result="BackgroundImageFix"/>
<feBlend mode="normal" in="SourceGraphic" in2="BackgroundImageFix" result="shape"/>
<feColorMatrix in="SourceAlpha" type="matrix" values="0 0 0 0 0 0 0 0 0 0 0 0 0 0 0 0 0 0 127 0" result="hardAlpha"/>
<feMorphology radius="12" operator="dilate" in="SourceAlpha" result="effect1_innerShadow_205_2"/>
<feOffset dx="-5" dy="-71"/>
<feGaussianBlur stdDeviation="19.5"/>
<feComposite in2="hardAlpha" operator="arithmetic" k2="-1" k3="1"/>
<feColorMatrix type="matrix" values="0 0 0 0 0.954167 0 0 0 0 0.800546 0 0 0 0 0.620208 0 0 0 1 0"/>
<feBlend mode="normal" in2="shape" result="effect1_innerShadow_205_2"/>
</filter>
</defs>
</svg>
