<svg width="25" height="25" viewBox="0 0 25 25" fill="none" xmlns="http://www.w3.org/2000/svg">
<path d="M17.8077 8.84954L13.0295 0.554492C12.8222 0.200436 12.4731 0.023407 12.124 0.023407C11.7749 0.023407 11.4258 0.200436 11.2186 0.567137L6.44039 8.84954H1.21493C0.614933 8.84954 0.124023 9.41856 0.124023 10.114C0.124023 10.2278 0.134932 10.3416 0.16766 10.4554L2.93857 22.1773C3.18948 23.2394 4.02948 24.0234 5.03311 24.0234H19.2149C20.2186 24.0234 21.0586 23.2394 21.3204 22.1773L24.0913 10.4554L24.124 10.114C24.124 9.41856 23.6331 8.84954 23.0331 8.84954H17.8077ZM8.8513 8.84954L12.124 3.28579L15.3968 8.84954H8.8513ZM12.124 18.9655C10.924 18.9655 9.94221 17.8274 9.94221 16.4365C9.94221 15.0455 10.924 13.9075 12.124 13.9075C13.324 13.9075 14.3058 15.0455 14.3058 16.4365C14.3058 17.8274 13.324 18.9655 12.124 18.9655Z" fill="white"/>
</svg>
