<svg width="25" height="24" viewBox="0 0 25 24" fill="none" xmlns="http://www.w3.org/2000/svg">
<path d="M17.8077 8.82516L13.0295 0.530109C12.8222 0.176052 12.4731 -0.000976562 12.124 -0.000976562C11.7749 -0.000976562 11.4258 0.176052 11.2186 0.542754L6.44039 8.82516H1.21493C0.614933 8.82516 0.124023 9.39418 0.124023 10.0896C0.124023 10.2034 0.134932 10.3173 0.16766 10.4311L2.93857 22.1529C3.18948 23.215 4.02948 23.999 5.03311 23.999H19.2149C20.2186 23.999 21.0586 23.215 21.3204 22.1529L24.0913 10.4311L24.124 10.0896C24.124 9.39418 23.6331 8.82516 23.0331 8.82516H17.8077ZM8.8513 8.82516L12.124 3.2614L15.3968 8.82516H8.8513ZM12.124 18.9411C10.924 18.9411 9.94221 17.803 9.94221 16.4121C9.94221 15.0212 10.924 13.8831 12.124 13.8831C13.324 13.8831 14.3058 15.0212 14.3058 16.4121C14.3058 17.803 13.324 18.9411 12.124 18.9411Z" fill="#F3CC9E"/>
</svg>
