<svg width="158" height="42" viewBox="0 0 158 42" fill="none" xmlns="http://www.w3.org/2000/svg">
<rect x="0.63501" y="0.707397" width="157.093" height="40.4928" rx="20.2464" fill="#C45C21"/>
<path d="M54.5832 32.2002H45.7343V11.5048H54.3824C56.3425 11.5048 57.8819 11.9685 59.0005 12.896C60.1192 13.8139 60.6785 15.0712 60.6785 16.6679C60.6785 17.7579 60.3248 18.7284 59.6172 19.5793C58.9097 20.4303 58.0348 20.937 56.9927 21.0996V21.3577C58.3886 21.4916 59.5216 22.0174 60.3917 22.9353C61.2618 23.8436 61.6968 24.9719 61.6968 26.32C61.6968 28.1367 61.061 29.5708 59.7893 30.6226C58.5272 31.6743 56.7919 32.2002 54.5832 32.2002ZM49.4345 14.4449V20.2104H53.0056C54.3155 20.2104 55.3099 19.9665 55.9887 19.4789C56.6771 18.9817 57.0213 18.2646 57.0213 17.3276C57.0213 16.4193 56.7106 15.7118 56.0891 15.205C55.4676 14.6983 54.5976 14.4449 53.4789 14.4449H49.4345ZM49.4345 29.2601H53.737C55.1043 29.2601 56.1417 28.9876 56.8492 28.4426C57.5568 27.8881 57.9105 27.0849 57.9105 26.0332C57.9105 25.0006 57.5424 24.2165 56.8062 23.6811C56.0796 23.1457 55.0087 22.878 53.5936 22.878H49.4345V29.2601ZM71.8205 32.5157C69.4684 32.5157 67.6231 31.7938 66.2845 30.3501C64.9459 28.8968 64.2766 26.8985 64.2766 24.3552C64.2766 21.831 64.9507 19.8422 66.2988 18.3889C67.647 16.9261 69.4875 16.1946 71.8205 16.1946C74.163 16.1946 76.0035 16.9213 77.3421 18.3746C78.6903 19.8279 79.3643 21.8214 79.3643 24.3552C79.3643 26.8985 78.6903 28.8968 77.3421 30.3501C76.0035 31.7938 74.163 32.5157 71.8205 32.5157ZM68.9378 28.1845C69.6166 29.0832 70.5775 29.5326 71.8205 29.5326C73.0634 29.5326 74.0196 29.0832 74.6889 28.1845C75.3677 27.2761 75.7071 25.9997 75.7071 24.3552C75.7071 22.7202 75.3677 21.4485 74.6889 20.5402C74.01 19.6319 73.0539 19.1777 71.8205 19.1777C70.5775 19.1777 69.6166 19.6319 68.9378 20.5402C68.2589 21.4485 67.9195 22.7202 67.9195 24.3552C67.9195 25.9997 68.2589 27.2761 68.9378 28.1845ZM89.4163 32.5157C87.0642 32.5157 85.2189 31.7938 83.8803 30.3501C82.5417 28.8968 81.8724 26.8985 81.8724 24.3552C81.8724 21.831 82.5465 19.8422 83.8947 18.3889C85.2428 16.9261 87.0833 16.1946 89.4163 16.1946C91.7588 16.1946 93.5993 16.9213 94.9379 18.3746C96.2861 19.8279 96.9601 21.8214 96.9601 24.3552C96.9601 26.8985 96.2861 28.8968 94.9379 30.3501C93.5993 31.7938 91.7588 32.5157 89.4163 32.5157ZM86.5336 28.1845C87.2124 29.0832 88.1733 29.5326 89.4163 29.5326C90.6593 29.5326 91.6154 29.0832 92.2847 28.1845C92.9635 27.2761 93.3029 25.9997 93.3029 24.3552C93.3029 22.7202 92.9635 21.4485 92.2847 20.5402C91.6058 19.6319 90.6497 19.1777 89.4163 19.1777C88.1733 19.1777 87.2124 19.6319 86.5336 20.5402C85.8547 21.4485 85.5153 22.7202 85.5153 24.3552C85.5153 25.9997 85.8547 27.2761 86.5336 28.1845ZM104.187 22.9066L109.981 16.5101H114.111L107.858 23.2365L114.542 32.2002H110.239L105.205 25.4738L103.943 26.7359V32.2002H100.386V10.4435H103.943V22.9066H104.187Z" fill="white"/>
</svg>
