<svg width="22" height="22" viewBox="0 0 22 22" fill="none" xmlns="http://www.w3.org/2000/svg">
<path d="M20.3844 16.8052H2.11597V18.6278H20.3844V16.8052Z" fill="#F3CC9E"/>
<path d="M21.1675 18.0206H1.33325V19.8431H21.1675V18.0206Z" fill="#F3CC9E"/>
<path d="M21.9503 20.4503H0.550293V21.6657H21.9503V20.4503Z" fill="#F3CC9E"/>
<path d="M3.94243 7.99738H2.63794V17.1093H3.94243V7.99738Z" fill="#F3CC9E"/>
<path d="M6.55227 7.99738H5.50903V17.1093H6.55227V7.99738Z" fill="#F3CC9E"/>
<path d="M9.16219 7.99738H7.85767V17.1093H9.16219V7.99738Z" fill="#F3CC9E"/>
<path d="M11.7723 7.99738H10.4678V17.1093H11.7723V7.99738Z" fill="#F3CC9E"/>
<path d="M14.6433 7.99738H13.3379V17.1093H14.6433V7.99738Z" fill="#F3CC9E"/>
<path d="M16.991 7.99738H15.6865V17.1093H16.991V7.99738Z" fill="#F3CC9E"/>
<path d="M19.602 7.99738H18.5579V17.1093H19.602V7.99738Z" fill="#F3CC9E"/>
<path d="M21.2138 7.99736H11.2245H1.19946L0.660889 6.41733L11.2236 0.266602L21.7568 6.4075L21.2138 7.99736ZM11.212 2.27642C10.5851 2.27642 10.0778 2.86761 10.0778 3.59699C10.0778 4.32548 10.5851 4.91664 11.212 4.91664C11.8388 4.91664 12.3462 4.32548 12.3462 3.59699C12.3462 2.86761 11.8379 2.27642 11.212 2.27642Z" fill="#F3CC9E"/>
</svg>
