<svg width="25" height="25" viewBox="0 0 25 25" fill="none" xmlns="http://www.w3.org/2000/svg">
<path d="M21.502 3.03037H20.1687V0.630371H17.502V3.03037H6.83537V0.630371H4.1687V3.03037H2.83537C1.35537 3.03037 0.168701 4.11037 0.168701 5.43037V22.2304C0.168701 23.5504 1.35537 24.6304 2.83537 24.6304H21.502C22.9687 24.6304 24.1687 23.5504 24.1687 22.2304V5.43037C24.1687 4.11037 22.9687 3.03037 21.502 3.03037ZM12.1687 6.63037C14.382 6.63037 16.1687 8.23837 16.1687 10.2304C16.1687 12.2224 14.382 13.8304 12.1687 13.8304C9.95537 13.8304 8.1687 12.2224 8.1687 10.2304C8.1687 8.23837 9.95537 6.63037 12.1687 6.63037ZM20.1687 21.0304H4.1687V19.8304C4.1687 17.4304 9.50204 16.1104 12.1687 16.1104C14.8354 16.1104 20.1687 17.4304 20.1687 19.8304V21.0304Z" fill="#642908"/>
</svg>
