<svg width="32" height="9" viewBox="0 0 32 9" fill="none" xmlns="http://www.w3.org/2000/svg">
<path d="M3.93473 0.399963C1.78916 0.399963 0.0336914 2.20559 0.0336914 4.41246C0.0336914 6.61934 1.78916 8.42496 3.93473 8.42496C6.08031 8.42496 7.83577 6.61934 7.83577 4.41246C7.83577 2.20559 6.08031 0.399963 3.93473 0.399963ZM27.341 0.399963C25.1954 0.399963 23.4399 2.20559 23.4399 4.41246C23.4399 6.61934 25.1954 8.42496 27.341 8.42496C29.4866 8.42496 31.242 6.61934 31.242 4.41246C31.242 2.20559 29.4866 0.399963 27.341 0.399963ZM15.6379 0.399963C13.4923 0.399963 11.7368 2.20559 11.7368 4.41246C11.7368 6.61934 13.4923 8.42496 15.6379 8.42496C17.7834 8.42496 19.5389 6.61934 19.5389 4.41246C19.5389 2.20559 17.7834 0.399963 15.6379 0.399963Z" fill="#F3CC9E"/>
</svg>
