<svg width="28" height="25" viewBox="0 0 28 25" fill="none" xmlns="http://www.w3.org/2000/svg">
<rect width="28" height="25" fill="#E5E5E5"/>
<g clip-path="url(#clip0_0_1)">
<rect width="480" height="926" transform="translate(-43 -185)" fill="white"/>
<rect x="-43" y="-99.2243" width="480" height="749.601" rx="23" fill="#F3CC9E"/>
<rect x="-43" y="-185" width="480" height="1129" fill="#642908"/>
<path d="M-43 -47.7732C-43 -69.8646 -25.0914 -87.7732 -3 -87.7732H397C419.091 -87.7732 437 -69.8645 437 -47.7732V741H-43V-47.7732Z" fill="#F5E3CD"/>
<path d="M27.2326 9.00292C27.1382 9.06469 27.0469 9.13191 26.9562 9.2053C26.8643 9.2787 26.7743 9.35863 26.6873 9.4462C26.5125 9.62096 26.3581 9.83024 26.2014 10.0795C26.134 10.1896 26.0697 10.3091 26.009 10.4374C26.0437 10.2568 26.0757 10.0868 26.1061 9.9298C26.1138 9.88837 26.1219 9.84768 26.1293 9.80808C26.1354 9.76847 26.1414 9.72923 26.1472 9.69145C26.159 9.61515 26.1701 9.54248 26.1809 9.47308C26.1981 9.36335 26.2136 9.2638 26.2274 9.17333C26.2432 9.14826 26.2587 9.12283 26.2735 9.09739C26.3184 9.01964 26.3561 8.94115 26.3928 8.86413C26.4653 8.70898 26.5253 8.55602 26.5738 8.40632C26.622 8.25663 26.6506 8.10839 26.6742 7.96342C26.6958 7.81917 26.7103 7.67747 26.7123 7.53904C26.7113 7.26145 26.6799 6.9973 26.6223 6.74442C26.559 6.4919 26.475 6.25137 26.382 6.01956C26.281 6.25137 26.189 6.48427 26.1172 6.72516C26.04 6.96605 25.978 7.21421 25.95 7.478C25.9329 7.60953 25.9197 7.74505 25.9177 7.88602C25.914 8.027 25.9241 8.17343 25.9362 8.32566C25.9477 8.4779 25.9696 8.63668 26.0019 8.80418C26.0181 8.88738 26.0387 8.97386 26.0592 9.06142C26.0653 9.0894 26.0724 9.11846 26.0794 9.14753C26.0649 9.23582 26.0488 9.33356 26.0313 9.44147C25.9891 9.70852 25.9305 10.0319 25.8523 10.3989C25.8446 10.255 25.8304 10.1191 25.8095 9.99265C25.7654 9.70489 25.6704 9.456 25.5608 9.242C25.5052 9.13518 25.4436 9.03635 25.3775 8.94443C25.3105 8.8525 25.2357 8.76675 25.1595 8.68718C25.0062 8.52731 24.8387 8.39034 24.6652 8.26535C24.6702 8.37907 24.678 8.49243 24.6894 8.60616C24.7009 8.71988 24.7167 8.83434 24.7319 8.94697C24.7636 9.1726 24.8209 9.39969 24.9024 9.62496C24.9806 9.84986 25.0918 10.0759 25.2454 10.3033C25.3775 10.5013 25.5366 10.6997 25.7384 10.9006C25.6798 11.1437 25.6131 11.4013 25.5373 11.6705C25.4432 12.0045 25.3341 12.3562 25.209 12.7202C25.2131 12.6763 25.2158 12.633 25.2161 12.5898C25.2168 12.5113 25.2154 12.4357 25.2114 12.3623C25.1952 12.0684 25.1457 11.8144 25.0547 11.5844C24.9674 11.3563 24.8539 11.1579 24.7238 10.9802C24.59 10.8014 24.4374 10.6423 24.2797 10.4952C24.2726 10.6085 24.2689 10.7219 24.2672 10.836C24.2625 10.949 24.2615 11.062 24.2659 11.1768C24.2702 11.2909 24.2797 11.406 24.2958 11.5223C24.31 11.6375 24.3272 11.7527 24.3545 11.8697C24.4593 12.3064 24.6497 12.7529 25.0227 13.2394C24.8465 13.7081 24.6436 14.1921 24.4101 14.6793C24.3663 14.7658 24.3221 14.8534 24.2776 14.9409C24.2989 14.8301 24.3151 14.7233 24.3252 14.6212C24.3464 14.3269 24.3221 14.0646 24.2696 13.8284C24.2133 13.5904 24.121 13.3753 24.0128 13.1809C23.9029 12.9847 23.7789 12.8096 23.6364 12.6399L23.6229 12.7231L23.6067 12.8056C23.5963 12.8605 23.5868 12.9157 23.5784 12.9713C23.5612 13.0825 23.5478 13.1944 23.5393 13.3085C23.5326 13.4233 23.5222 13.5348 23.5218 13.6504C23.5208 13.7655 23.5262 13.8833 23.5393 14.0035C23.5454 14.0635 23.5545 14.1245 23.5639 14.1852C23.5724 14.2455 23.5831 14.3069 23.5959 14.3687C23.6216 14.4926 23.6563 14.6198 23.7011 14.7509C23.7456 14.8817 23.8015 15.0176 23.8659 15.1564C23.9093 15.2509 23.9585 15.3479 24.0135 15.4474C24.0091 15.4551 24.005 15.4631 24.0003 15.4707C23.9269 15.6015 23.8527 15.7341 23.7789 15.8667C23.7011 15.9972 23.6192 16.1254 23.539 16.2559C23.4986 16.3213 23.4585 16.3863 23.418 16.4517C23.3773 16.5167 23.3321 16.5785 23.289 16.6425C23.2121 16.7544 23.1353 16.8666 23.0581 16.9789C23.0642 16.9604 23.0699 16.9411 23.0757 16.9229C23.0982 16.8488 23.1178 16.7765 23.1343 16.7053C23.167 16.5629 23.1899 16.4284 23.199 16.2969C23.2061 16.1639 23.2034 16.0368 23.1919 15.9151C23.1518 15.4315 22.956 15.0165 22.7286 14.6441C22.6932 14.7484 22.6595 14.8537 22.6295 14.9609L22.586 15.1222C22.5712 15.1753 22.5571 15.2291 22.5443 15.2828C22.5183 15.3915 22.4971 15.5023 22.4819 15.6164C22.4742 15.6734 22.4684 15.7316 22.463 15.7901C22.4563 15.8471 22.4519 15.9052 22.4489 15.9645C22.4425 16.0825 22.4435 16.2054 22.4533 16.3329C22.4614 16.4597 22.4816 16.5945 22.5032 16.7282C22.5416 16.9527 22.6066 17.194 22.7016 17.4556L22.6086 17.5788C22.5601 17.6391 22.5099 17.6965 22.4607 17.7564L22.1635 18.1103C22.0587 18.2233 21.9546 18.3356 21.8498 18.4475C21.7975 18.5035 21.746 18.5609 21.6927 18.615L21.5371 18.7658C21.5768 18.692 21.6132 18.619 21.6445 18.5471C21.7517 18.2757 21.8083 18.0213 21.8275 17.7815C21.841 17.5352 21.8167 17.3037 21.7692 17.0839C21.7453 16.9738 21.7153 16.8666 21.6809 16.762C21.6452 16.6559 21.6038 16.5509 21.561 16.4488L21.4895 16.5949C21.4646 16.6425 21.4403 16.6901 21.4168 16.7387C21.3696 16.8361 21.3254 16.9357 21.2857 17.0385C21.2654 17.0897 21.2483 17.1439 21.2287 17.1951C21.2088 17.2463 21.1906 17.2983 21.1735 17.3517C21.1394 17.4581 21.1104 17.5697 21.0879 17.686C21.0764 17.7441 21.0666 17.804 21.0582 17.8654C21.0488 17.9247 21.0403 17.985 21.0339 18.0478C21.0211 18.1721 21.0151 18.3036 21.0171 18.4424C21.0188 18.5812 21.0302 18.7295 21.0474 18.8828C21.0575 18.9798 21.0717 19.0804 21.0895 19.1847C21.0127 19.2505 20.9366 19.3166 20.8601 19.3827C20.8031 19.4307 20.7489 19.4819 20.6899 19.5266C20.6313 19.5717 20.5726 19.6167 20.5143 19.6614C20.3971 19.7504 20.2828 19.8424 20.1652 19.927C20.0459 20.0088 19.9267 20.0891 19.8087 20.1697C19.7858 20.185 19.7629 20.2006 19.7403 20.2166C19.7834 20.1596 19.8235 20.1029 19.8606 20.0466C19.9388 19.9277 20.0045 19.8097 20.0577 19.6938C20.1083 19.5731 20.147 19.4529 20.176 19.3348C20.205 19.2174 20.2242 19.1015 20.235 18.9874C20.2407 18.9304 20.2441 18.8737 20.2451 18.8174C20.2458 18.7593 20.2444 18.7015 20.241 18.6448C20.2293 18.4163 20.1918 18.1957 20.142 17.9803C20.0122 18.1427 19.8946 18.3229 19.7764 18.4973C19.6601 18.6757 19.5627 18.8799 19.4721 19.0884C19.4279 19.1953 19.3892 19.3086 19.3555 19.4303C19.3386 19.4914 19.3231 19.5546 19.3093 19.6193C19.2952 19.684 19.2807 19.7479 19.2689 19.8151C19.2298 20.0309 19.2065 20.2729 19.2028 20.5432C19.1664 20.565 19.129 20.5872 19.093 20.6086C18.9717 20.6711 18.851 20.7333 18.7321 20.7947C18.6128 20.8553 18.4965 20.9197 18.3756 20.9687C18.2563 21.021 18.1383 21.0719 18.0221 21.1231C17.9634 21.1471 17.9068 21.1762 17.8475 21.1962C17.8017 21.2129 17.7562 21.2292 17.7111 21.2456C17.7555 21.2085 17.7983 21.1711 17.8384 21.1329C18.0362 20.9309 18.1791 20.718 18.2822 20.5062C18.3833 20.2882 18.4406 20.0615 18.473 19.8402C18.5053 19.6178 18.5117 19.3991 18.4996 19.172C18.4248 19.2443 18.3452 19.3061 18.2698 19.3766C18.1936 19.4456 18.1198 19.519 18.0484 19.5971C17.9779 19.6781 17.9041 19.7504 17.8364 19.8351C17.7677 19.9183 17.7023 20.0084 17.64 20.1061C17.6086 20.1545 17.579 20.2064 17.549 20.2573C17.5183 20.3074 17.489 20.3594 17.4607 20.4132C17.4034 20.5222 17.3505 20.6399 17.3016 20.7685C17.2524 20.8964 17.209 21.0377 17.1679 21.1856C17.1439 21.2706 17.1214 21.3611 17.1005 21.4552C17.0658 21.4647 17.0314 21.4752 16.997 21.485C16.8872 21.517 16.7793 21.5486 16.6739 21.5791C16.6216 21.5962 16.5684 21.6075 16.5158 21.6187C16.4636 21.63 16.4114 21.6416 16.3601 21.6529C16.2577 21.6758 16.1576 21.6983 16.0602 21.7201C16.011 21.7299 15.9635 21.7426 15.9153 21.7506C15.8671 21.7582 15.82 21.7651 15.7731 21.7724C15.5864 21.8018 15.4105 21.8287 15.2464 21.8542C15.1824 21.8603 15.1207 21.8654 15.0604 21.8709C14.9694 21.4294 14.6048 21.0995 14.1685 21.0995C13.7314 21.0995 13.3668 21.4294 13.2762 21.8709C13.2158 21.8654 13.1545 21.8603 13.0902 21.8542C12.9264 21.8291 12.7501 21.8018 12.5635 21.7724C12.517 21.7651 12.4698 21.7582 12.4216 21.7506C12.3734 21.7426 12.3259 21.7299 12.2767 21.7201C12.1793 21.6983 12.0792 21.6761 11.9765 21.6529C11.9256 21.6416 11.8733 21.63 11.8211 21.6187C11.7685 21.6075 11.7156 21.5958 11.6631 21.5791C11.5576 21.5486 11.4498 21.517 11.3399 21.485C11.3055 21.4752 11.2712 21.4647 11.2365 21.4552C11.2152 21.3611 11.193 21.2706 11.1691 21.1856C11.128 21.0377 11.0841 20.896 11.0353 20.7685C10.9864 20.6399 10.9332 20.5222 10.8766 20.4132C10.8479 20.3598 10.8183 20.3074 10.788 20.2573C10.758 20.2064 10.7283 20.1545 10.697 20.1061C10.6346 20.008 10.5693 19.9183 10.5005 19.8351C10.4324 19.7504 10.359 19.6778 10.2886 19.5971C10.2171 19.5186 10.143 19.4456 10.0672 19.3766C9.99168 19.3064 9.91216 19.2447 9.83735 19.172C9.82522 19.3991 9.83162 19.6178 9.86397 19.8402C9.89666 20.0615 9.95394 20.2882 10.0547 20.5062C10.1581 20.718 10.3004 20.9309 10.4985 21.1329C10.5383 21.1707 10.5814 21.2085 10.6259 21.2456C10.5804 21.2292 10.5349 21.2129 10.4894 21.1962C10.4301 21.1762 10.3735 21.1471 10.3148 21.1231C10.1986 21.0719 10.0806 21.021 9.96136 20.9687C9.84038 20.9197 9.72446 20.8553 9.6045 20.7947C9.48555 20.7333 9.36525 20.6711 9.24394 20.6086C9.20789 20.5872 9.17048 20.565 9.13409 20.5432C9.13004 20.2729 9.10713 20.0309 9.06804 19.8151C9.05625 19.7475 9.04176 19.684 9.02761 19.6193C9.01345 19.5546 8.99829 19.4914 8.98144 19.4303C8.94774 19.3086 8.90899 19.1953 8.86485 19.0884C8.77387 18.8799 8.67682 18.6757 8.56056 18.4973C8.44228 18.3233 8.32468 18.1427 8.19494 17.9803C8.14474 18.1957 8.10733 18.4163 8.09554 18.6448C8.0925 18.7011 8.09116 18.7589 8.09183 18.8174C8.09284 18.8737 8.09655 18.9304 8.10194 18.9874C8.11272 19.1015 8.13193 19.2174 8.16091 19.3348C8.18989 19.4529 8.2283 19.5731 8.27919 19.6938C8.33243 19.8093 8.39814 19.9277 8.47632 20.0466C8.51339 20.1025 8.55348 20.1596 8.59662 20.2166C8.57404 20.2006 8.55112 20.185 8.52821 20.1697C8.41027 20.0891 8.29132 20.0088 8.17136 19.927C8.05376 19.8424 7.93952 19.7504 7.82259 19.6614C7.76429 19.6167 7.70566 19.5717 7.64703 19.5266C7.58806 19.4819 7.5338 19.4303 7.47652 19.3827C7.40036 19.3166 7.32387 19.2505 7.24738 19.1847C7.26524 19.0804 7.27939 18.9798 7.2895 18.8828C7.30668 18.7295 7.31781 18.5812 7.31949 18.4424C7.32185 18.3036 7.31578 18.1721 7.30298 18.0478C7.29624 17.985 7.28815 17.9247 7.27872 17.8654C7.27063 17.804 7.26052 17.7441 7.24906 17.686C7.22649 17.5697 7.1975 17.4581 7.16347 17.3517C7.14628 17.2986 7.12809 17.2463 7.10821 17.1951C7.08867 17.1439 7.07148 17.0897 7.05092 17.0385C7.01116 16.9357 6.96735 16.8357 6.92017 16.7387C6.89659 16.6901 6.87233 16.6425 6.84739 16.5949L6.77595 16.4488C6.73248 16.5509 6.69171 16.6559 6.65599 16.762C6.62162 16.8666 6.59197 16.9738 6.5677 17.0839C6.52019 17.3034 6.49593 17.5352 6.50907 17.7815C6.52862 18.0213 6.58523 18.2757 6.69238 18.5471C6.72406 18.6186 6.76011 18.6917 6.79988 18.7658L6.64386 18.615C6.59062 18.5609 6.5394 18.5035 6.48683 18.4475C6.38237 18.3356 6.27825 18.2233 6.17345 18.1103L5.87624 17.7564C5.82704 17.6965 5.77649 17.6391 5.72831 17.5788L5.6353 17.4556C5.73033 17.194 5.79536 16.9527 5.83377 16.7282C5.85534 16.5945 5.87556 16.4597 5.88398 16.3329C5.89308 16.2054 5.8941 16.0829 5.88803 15.9645C5.885 15.9052 5.88061 15.8471 5.87388 15.7901C5.86848 15.7319 5.86309 15.6738 5.855 15.6164C5.83984 15.5023 5.81895 15.3915 5.79267 15.2828C5.77986 15.2291 5.76571 15.1753 5.75054 15.1222L5.70741 14.9609C5.67742 14.8537 5.64406 14.7484 5.60834 14.6441C5.38089 15.0165 5.1851 15.4315 5.145 15.9151C5.13355 16.0368 5.13085 16.1639 5.13793 16.2969C5.14703 16.4284 5.17027 16.5629 5.20262 16.7053C5.21914 16.7762 5.23835 16.8488 5.26126 16.9229C5.26699 16.9415 5.27272 16.9607 5.27878 16.9789C5.20162 16.8666 5.12478 16.7544 5.04795 16.6425C5.00482 16.5781 4.95967 16.5164 4.91889 16.4517C4.87846 16.3863 4.83836 16.3213 4.79792 16.2559C4.71772 16.1254 4.63617 15.9972 4.558 15.8667C4.48386 15.7341 4.41007 15.6019 4.33661 15.4707C4.33223 15.4631 4.32784 15.4551 4.32346 15.4474C4.37805 15.3482 4.42759 15.2509 4.47106 15.1564C4.53542 15.0176 4.59136 14.8817 4.63584 14.7509C4.68032 14.6201 4.71503 14.4926 4.74097 14.3687C4.75378 14.3069 4.76422 14.2455 4.77299 14.1852C4.78242 14.1245 4.79186 14.0635 4.79758 14.0035C4.81073 13.8833 4.81612 13.7659 4.81511 13.6504C4.81511 13.5348 4.80432 13.4233 4.79758 13.3085C4.78916 13.1947 4.77568 13.0825 4.7585 12.9713C4.75007 12.9157 4.7403 12.8605 4.73019 12.8056L4.71435 12.7231L4.70054 12.6399C4.558 12.8096 4.43399 12.9847 4.32414 13.1809C4.21631 13.3753 4.12364 13.5904 4.06737 13.8284C4.01446 14.0642 3.99053 14.3269 4.01176 14.6212C4.02154 14.7233 4.03771 14.8301 4.05894 14.9409C4.0148 14.8537 3.97065 14.7662 3.92685 14.6793C3.69332 14.1921 3.49013 13.7081 3.31389 13.2394C3.68692 12.7529 3.87799 12.3067 3.98245 11.8697C4.00941 11.7527 4.02693 11.6375 4.04108 11.5223C4.05726 11.406 4.06669 11.2909 4.07107 11.1768C4.07545 11.0623 4.07444 10.949 4.06939 10.836C4.06804 10.7219 4.06433 10.6081 4.05759 10.4952C3.89921 10.6423 3.7469 10.8014 3.61312 10.9802C3.48272 11.1579 3.36916 11.3563 3.28222 11.5844C3.19124 11.8144 3.1417 12.0684 3.12553 12.3623C3.12148 12.4357 3.1198 12.5113 3.12081 12.5898C3.12114 12.633 3.12384 12.6763 3.12755 12.7202C3.00253 12.3562 2.89402 12.0045 2.79967 11.6705C2.72385 11.4013 2.65713 11.1437 2.5985 10.9006C2.80001 10.6997 2.9594 10.5013 3.09149 10.3033C3.24515 10.0759 3.35601 9.84986 3.43453 9.62496C3.51574 9.39969 3.57336 9.1726 3.60538 8.94697C3.61987 8.83434 3.63604 8.72025 3.6475 8.60616C3.65895 8.49243 3.6667 8.37907 3.67176 8.26535C3.49855 8.39034 3.33108 8.52731 3.17742 8.68718C3.10093 8.76675 3.02645 8.8525 2.9594 8.94443C2.89335 9.03635 2.83169 9.13518 2.77609 9.242C2.66657 9.45637 2.57154 9.70489 2.5274 9.99265C2.50651 10.1195 2.49235 10.255 2.4846 10.3989C2.40609 10.0319 2.34779 9.70889 2.30567 9.44147C2.28781 9.33356 2.27197 9.23618 2.25748 9.14753C2.26422 9.11846 2.2713 9.0894 2.2777 9.06142C2.29826 8.97386 2.31881 8.88738 2.33465 8.80418C2.36768 8.63668 2.38924 8.4779 2.4007 8.32566C2.41283 8.17343 2.4226 8.027 2.41923 7.88602C2.41721 7.74505 2.40407 7.60953 2.38722 7.478C2.35891 7.21385 2.29623 6.96605 2.2194 6.72516C2.14763 6.48427 2.05564 6.25101 1.95455 6.01956C1.86154 6.25137 1.77763 6.4919 1.71462 6.74442C1.65666 6.99694 1.62566 7.26145 1.62431 7.53904C1.62634 7.67747 1.64082 7.81917 1.66273 7.96342C1.68598 8.10802 1.71496 8.25663 1.76281 8.40632C1.81167 8.55602 1.87131 8.70898 1.9441 8.86413C1.98049 8.94115 2.01857 9.01964 2.06339 9.09739C2.07821 9.12283 2.09405 9.14826 2.10955 9.17333C2.12337 9.2638 2.13887 9.36335 2.15605 9.47308C2.1665 9.54212 2.17762 9.61515 2.18975 9.69145C2.19582 9.72923 2.20155 9.76847 2.20795 9.80808C2.21536 9.84768 2.22311 9.88837 2.23086 9.9298C2.26119 10.0871 2.29354 10.2568 2.32791 10.4374C2.26692 10.3088 2.2029 10.1892 2.1355 10.0795C1.97847 9.82988 1.82447 9.62096 1.64959 9.4462C1.56298 9.35863 1.47335 9.2787 1.38102 9.2053C1.2897 9.13227 1.19905 9.06469 1.10436 9.00292C0.91566 8.87939 0.718868 8.7762 0.519043 8.68101C0.554088 8.80999 0.591152 8.93825 0.631926 9.06433C0.6727 9.19004 0.716507 9.31358 0.771433 9.43311C0.879265 9.67219 1.00192 9.89891 1.16131 10.1024C1.32306 10.3059 1.51345 10.4864 1.74124 10.6354C1.9414 10.7647 2.17459 10.869 2.43979 10.9439C2.44922 10.9853 2.45899 11.0271 2.46877 11.0696C2.51392 11.2836 2.57761 11.5034 2.6386 11.7352C2.73127 12.0742 2.83876 12.4314 2.96243 12.802C2.93446 12.7616 2.90649 12.722 2.88021 12.6832C2.83674 12.6203 2.7926 12.5604 2.74778 12.5033C2.56919 12.2755 2.3761 12.0942 2.18908 11.942C1.99869 11.7908 1.7992 11.6735 1.59365 11.5768C1.39214 11.4791 1.18726 11.4028 0.978334 11.3352C1.0272 11.4594 1.07707 11.5823 1.132 11.7022C1.19029 11.8206 1.25195 11.9369 1.318 12.0491C1.38405 12.1614 1.45448 12.2697 1.5303 12.3729C1.60814 12.475 1.69474 12.5713 1.78606 12.6617C2.12034 12.9989 2.56682 13.2365 3.14237 13.3165C3.31861 13.7982 3.52282 14.2957 3.75937 14.7971C3.79981 14.8792 3.84058 14.9624 3.88169 15.0452C3.80688 14.9635 3.73174 14.8879 3.65626 14.8185C3.45104 14.6187 3.24346 14.4642 3.0305 14.3447C2.8209 14.2234 2.61332 14.1332 2.39867 14.0668C2.18571 13.9992 1.96499 13.9548 1.75303 13.916L1.80021 14.0035L1.85109 14.0893C1.8858 14.1456 1.92085 14.2026 1.95657 14.2575C2.028 14.3683 2.10281 14.4762 2.18099 14.5787C2.25748 14.6822 2.34746 14.7774 2.43777 14.8683C2.52909 14.9584 2.62478 15.0423 2.72554 15.1193C2.77608 15.1575 2.82764 15.1946 2.88189 15.2287C2.93716 15.2618 2.99411 15.2934 3.0524 15.3224C3.16899 15.3806 3.29166 15.43 3.42105 15.4681C3.55079 15.5063 3.68558 15.535 3.83115 15.5495C3.93258 15.559 4.03704 15.5626 4.14554 15.5601C4.15363 15.575 4.16205 15.5899 4.17014 15.6048C4.2436 15.7392 4.31774 15.874 4.39187 16.0095C4.47207 16.1414 4.55294 16.2744 4.63348 16.4077C4.67391 16.4746 4.71435 16.5411 4.75513 16.6079C4.7986 16.673 4.84207 16.7373 4.88587 16.8027C4.95799 16.9106 5.03077 17.0189 5.10356 17.1268C5.08873 17.1152 5.07256 17.1021 5.05773 17.0897C4.99876 17.0436 4.93979 17.0007 4.88115 16.9607C4.76389 16.8801 4.64561 16.8129 4.5307 16.7525C4.41816 16.6908 4.30594 16.6392 4.19339 16.5959C3.73915 16.4266 3.30749 16.3794 2.86639 16.3732C2.94693 16.4793 3.02949 16.5829 3.11441 16.6835C3.15754 16.7329 3.19865 16.7831 3.24481 16.8296C3.29098 16.8764 3.33748 16.9222 3.38499 16.9665C3.48002 17.0548 3.57774 17.138 3.67951 17.2143C3.73039 17.2525 3.78195 17.2892 3.83553 17.3237C3.89012 17.3564 3.94605 17.388 4.003 17.4171C4.11656 17.4749 4.2345 17.525 4.35682 17.5639C4.47982 17.6024 4.60383 17.634 4.74131 17.6474C4.96708 17.6714 5.206 17.662 5.46075 17.6137L5.57228 17.7626L5.72224 17.9447C5.82266 18.066 5.92139 18.1888 6.02349 18.3087C6.1293 18.4243 6.23511 18.5398 6.34059 18.6553C6.39416 18.7124 6.44471 18.7727 6.50065 18.8268L6.63611 18.9602C6.56231 18.9235 6.48919 18.8901 6.41708 18.8606C6.16333 18.7429 5.91869 18.6695 5.67978 18.6285C5.44693 18.5809 5.21981 18.567 4.99505 18.574C4.88284 18.5776 4.7713 18.5859 4.6601 18.5983C4.55092 18.6092 4.44275 18.6234 4.33459 18.6397C4.3821 18.6859 4.4286 18.7327 4.47847 18.7767C4.52835 18.8203 4.57956 18.8624 4.63044 18.9042C4.73288 18.9874 4.83701 19.0655 4.94349 19.1386C4.99707 19.1745 5.0493 19.2109 5.10558 19.2418C5.16219 19.2734 5.21914 19.3028 5.27676 19.3304C5.392 19.3856 5.50927 19.4336 5.62991 19.4725C5.68989 19.4917 5.75054 19.5085 5.81221 19.5226C5.87489 19.5357 5.93925 19.5452 6.00361 19.5521C6.13301 19.5662 6.26443 19.5695 6.39922 19.5597C6.53434 19.5495 6.67048 19.5281 6.81235 19.4888C6.90367 19.4634 6.996 19.4307 7.08934 19.3922C7.29051 19.5695 7.48798 19.7493 7.69892 19.9063C7.75856 19.9528 7.81753 19.9993 7.87617 20.0455C7.93548 20.0916 7.9931 20.1396 8.05476 20.1803C8.17675 20.2642 8.29806 20.3489 8.41802 20.4317C8.43184 20.4415 8.44565 20.451 8.4598 20.4608C8.39308 20.4422 8.32737 20.4262 8.26301 20.4128C8.1262 20.3841 7.99344 20.3652 7.86404 20.3558C7.73801 20.3416 7.61602 20.3354 7.49606 20.3376C7.3761 20.3398 7.25917 20.3503 7.14392 20.3659C7.0863 20.3739 7.02902 20.3841 6.97308 20.3943C6.91782 20.4037 6.86289 20.415 6.80864 20.427C6.59062 20.4746 6.37866 20.5432 6.16873 20.6192C6.39416 20.762 6.6169 20.8997 6.86053 20.9916C7.10147 21.0864 7.34139 21.1642 7.59817 21.1809C7.72554 21.1918 7.85325 21.1929 7.9813 21.182C8.04533 21.1765 8.11003 21.1685 8.17405 21.1573C8.23842 21.1453 8.30547 21.1271 8.37085 21.1071C8.58314 21.0417 8.79576 20.9418 9.00738 20.8008C9.0549 20.8292 9.10174 20.8579 9.14925 20.8851C9.27326 20.9502 9.39625 21.0149 9.5179 21.0792C9.57889 21.1111 9.63921 21.1427 9.69919 21.1744C9.75985 21.2052 9.82185 21.2303 9.88284 21.2583C10.1029 21.3564 10.3162 21.4563 10.5312 21.5352C10.4729 21.5348 10.4156 21.5359 10.3593 21.5381C10.082 21.5391 9.83061 21.5715 9.59406 21.6343C9.3602 21.6914 9.14555 21.7677 8.93864 21.8669C8.73242 21.965 8.53394 22.0834 8.34456 22.1968C8.4652 22.2498 8.59291 22.2858 8.7186 22.3225C8.84429 22.3581 8.97032 22.389 9.09601 22.4126C9.22035 22.4402 9.35042 22.4471 9.47746 22.4511C9.60484 22.4544 9.73154 22.4497 9.8569 22.4348C9.91991 22.4271 9.98158 22.4192 10.0449 22.4043C10.1079 22.3886 10.1706 22.3705 10.233 22.3501C10.3573 22.308 10.48 22.2542 10.6006 22.1881C10.7209 22.1212 10.8382 22.0446 10.9541 21.9472C11.0221 21.8894 11.0892 21.8255 11.1553 21.7572C11.2014 21.7706 11.2469 21.7844 11.2921 21.7986C11.4043 21.8324 11.5145 21.8654 11.622 21.8974C11.7301 21.9276 11.8383 21.949 11.9424 21.9744C12.0988 22.0093 12.2487 22.0478 12.394 22.0754C10.5804 22.4522 9.74165 23.5255 9.74165 24.1842C9.82353 24.2983 10.2926 24.3361 10.4803 24.1842C10.6356 23.5142 11.6031 22.4918 13.2785 22.3112C13.3729 22.7472 13.7348 23.0724 14.1685 23.0724C14.6015 23.0724 14.9634 22.7472 15.0581 22.3112C16.7335 22.4918 17.701 23.5146 17.8563 24.1842C18.044 24.3361 18.5131 24.2983 18.5949 24.1842C18.5949 23.5255 17.7562 22.4522 15.9426 22.0754C16.0879 22.0478 16.2378 22.0089 16.3942 21.9744C16.4986 21.949 16.6065 21.9276 16.7146 21.8974C16.8221 21.8651 16.9323 21.832 17.0449 21.7986C17.0897 21.7844 17.1355 21.7706 17.1813 21.7572C17.247 21.8255 17.3144 21.8894 17.3825 21.9472C17.4984 22.0449 17.6154 22.1212 17.736 22.1881C17.8563 22.2546 17.9793 22.308 18.1036 22.3501C18.166 22.3708 18.2286 22.3886 18.2917 22.4043C18.3547 22.4192 18.4167 22.4271 18.4797 22.4348C18.605 22.4497 18.7317 22.4544 18.8591 22.4511C18.9862 22.4468 19.1162 22.4402 19.2406 22.4126C19.3663 22.389 19.4923 22.3581 19.618 22.3225C19.7437 22.2858 19.8714 22.2498 19.992 22.1968C19.8026 22.0831 19.6045 21.9646 19.3979 21.8669C19.191 21.7681 18.9764 21.6918 18.7425 21.6343C18.5063 21.5715 18.2549 21.5391 17.9773 21.5381C17.9213 21.5359 17.864 21.5348 17.8057 21.5352C18.0204 21.4563 18.234 21.3564 18.4541 21.2583C18.5151 21.2303 18.5771 21.2052 18.6374 21.1744C18.6977 21.1427 18.758 21.1111 18.819 21.0792C18.9403 21.0149 19.0637 20.9502 19.1877 20.8851C19.2352 20.8579 19.282 20.8292 19.3295 20.8008C19.5412 20.9418 19.7538 21.0417 19.9661 21.1071C20.0314 21.1271 20.0985 21.1449 20.1629 21.1573C20.2269 21.1685 20.2913 21.1769 20.3553 21.182C20.4837 21.1929 20.6114 21.1918 20.7384 21.1809C20.9959 21.1642 21.2358 21.0864 21.4764 20.9916C21.72 20.8997 21.9428 20.7616 22.1682 20.6192C21.9583 20.5432 21.7463 20.4746 21.5283 20.427C21.474 20.415 21.4191 20.4041 21.3638 20.3943C21.3079 20.3841 21.2506 20.3739 21.193 20.3659C21.0778 20.3503 20.9608 20.3398 20.8409 20.3376C20.7209 20.3354 20.5989 20.3416 20.4726 20.3558C20.3435 20.3652 20.2111 20.3841 20.0739 20.4128C20.0095 20.4262 19.9438 20.4422 19.8771 20.4608C19.8909 20.451 19.9051 20.4415 19.9189 20.4317C20.0389 20.3485 20.1602 20.2642 20.2822 20.1803C20.3442 20.1396 20.4015 20.0916 20.4608 20.0455C20.5197 19.9993 20.5787 19.9528 20.638 19.9063C20.8486 19.7493 21.0464 19.5695 21.2476 19.3922C21.3409 19.4303 21.4336 19.463 21.5246 19.4888C21.6664 19.5281 21.8022 19.5495 21.9377 19.5597C22.0718 19.5695 22.2039 19.5666 22.3333 19.5521C22.3977 19.5448 22.462 19.5357 22.5247 19.5226C22.5864 19.5085 22.647 19.4917 22.707 19.4725C22.827 19.434 22.9449 19.386 23.0602 19.3304C23.1178 19.3028 23.1747 19.2734 23.2313 19.2418C23.2876 19.2109 23.3399 19.1742 23.3934 19.1386C23.4996 19.0659 23.6037 18.9874 23.7065 18.9042C23.7574 18.8628 23.8082 18.8207 23.8585 18.7767C23.908 18.7327 23.9548 18.6859 24.0023 18.6397C23.8942 18.6234 23.786 18.6092 23.6765 18.5983C23.5656 18.5859 23.4541 18.5772 23.3419 18.574C23.1171 18.567 22.8897 18.5812 22.6571 18.6285C22.4179 18.6691 22.1733 18.7425 21.9198 18.8606C21.8474 18.8901 21.7743 18.9238 21.7008 18.9602L21.8359 18.8268C21.8922 18.7731 21.9424 18.7127 21.9963 18.6553C22.1018 18.5398 22.2076 18.4243 22.3134 18.3087C22.4155 18.1888 22.5143 18.066 22.6147 17.9447L22.7646 17.7626L22.8758 17.6137C23.1306 17.662 23.3698 17.6714 23.5956 17.6474C23.7328 17.634 23.8564 17.6024 23.9801 17.5639C24.1024 17.525 24.2204 17.4749 24.3339 17.4171C24.3909 17.388 24.4468 17.3564 24.5014 17.3237C24.555 17.2892 24.6065 17.2529 24.6571 17.2143C24.7592 17.138 24.8572 17.0552 24.9519 16.9665C24.9994 16.9222 25.0459 16.8764 25.0921 16.8296C25.1383 16.7831 25.1794 16.7326 25.2225 16.6835C25.3074 16.5832 25.39 16.4793 25.4705 16.3732C25.0294 16.3798 24.5978 16.4266 24.1435 16.5959C24.0313 16.6392 23.9191 16.6908 23.8066 16.7525C23.6916 16.8129 23.5734 16.8804 23.4561 16.9607C23.3971 17.0007 23.3382 17.0439 23.2795 17.0897C23.2644 17.1017 23.2485 17.1148 23.2334 17.1268C23.3065 17.0189 23.3793 16.9106 23.4511 16.8027C23.4949 16.7373 23.5383 16.673 23.5818 16.6079C23.6222 16.5411 23.663 16.4746 23.7034 16.4077C23.784 16.2744 23.8649 16.1418 23.9447 16.0095C24.0195 15.874 24.093 15.7392 24.1668 15.6048C24.1749 15.5899 24.1833 15.575 24.191 15.5601C24.2996 15.5626 24.4047 15.559 24.5058 15.5495C24.6514 15.535 24.7861 15.5067 24.9159 15.4681C25.0453 15.43 25.1679 15.3806 25.2845 15.3224C25.3428 15.2934 25.3994 15.2618 25.4547 15.2287C25.5093 15.1946 25.5602 15.1579 25.6114 15.1193C25.7125 15.0423 25.8082 14.9584 25.8992 14.8683C25.9895 14.7774 26.0794 14.6822 26.1556 14.5787C26.2341 14.4762 26.3086 14.3683 26.3804 14.2575C26.4161 14.2026 26.4511 14.1456 26.4858 14.0893L26.537 14.0035L26.5842 13.916C26.3723 13.9548 26.1512 13.9992 25.9386 14.0668C25.7239 14.1332 25.516 14.2234 25.3064 14.3447C25.0935 14.4642 24.8862 14.6187 24.681 14.8185C24.6052 14.8879 24.5304 14.9635 24.4556 15.0452C24.4963 14.9624 24.5375 14.8792 24.5779 14.7971C24.8144 14.2957 25.0186 13.7982 25.1949 13.3165C25.7701 13.2365 26.2169 12.9989 26.5512 12.6617C26.6422 12.5713 26.7285 12.475 26.807 12.3729C26.8825 12.2701 26.9532 12.1614 27.0193 12.0491C27.085 11.9369 27.1466 11.8206 27.2049 11.7022C27.2602 11.5823 27.3104 11.4594 27.3589 11.3352C27.15 11.4028 26.9448 11.4791 26.7433 11.5768C26.5384 11.6735 26.3389 11.7908 26.1478 11.942C25.9605 12.0942 25.7681 12.2755 25.5895 12.5033C25.5447 12.5604 25.5005 12.6203 25.4571 12.6832C25.4308 12.722 25.4028 12.7616 25.3748 12.802C25.4985 12.4314 25.606 12.0742 25.6987 11.7352C25.7597 11.5034 25.8233 11.2836 25.8685 11.0696C25.8783 11.0274 25.888 10.9857 25.8971 10.9439C26.1623 10.869 26.3959 10.7651 26.596 10.6354C26.8235 10.4864 27.0135 10.3059 27.1759 10.1024C27.3357 9.89891 27.458 9.67219 27.5655 9.43311C27.6208 9.31358 27.6646 9.19004 27.705 9.06433C27.7458 8.93825 27.7828 8.81035 27.8182 8.68101C27.6181 8.7762 27.4213 8.87939 27.2326 9.00292Z" fill="#642908"/>
<path d="M15.2967 15.7661C15.2179 15.7824 15.166 15.8791 15.1818 15.9852C15.1973 16.0898 15.2792 16.1643 15.3641 16.1465C15.4487 16.1287 15.4999 16.0281 15.4783 15.9238C15.4571 15.8195 15.3759 15.7494 15.2967 15.7661Z" fill="#642908"/>
<path d="M16.7896 15.2298C16.7175 15.2676 16.6912 15.3755 16.7324 15.4729C16.7731 15.571 16.8702 15.6182 16.9477 15.5768C17.0252 15.5365 17.0498 15.4246 17.0036 15.3297C16.9575 15.2349 16.8624 15.1909 16.7896 15.2298Z" fill="#642908"/>
<path d="M18.102 14.2866C18.041 14.344 18.042 14.4559 18.1053 14.538C18.1687 14.6205 18.2738 14.639 18.3385 14.5776C18.4036 14.5166 18.4005 14.4014 18.3328 14.3229C18.2654 14.2452 18.163 14.2295 18.102 14.2866Z" fill="#642908"/>
<path d="M19.374 12.9778C19.2897 12.9212 19.1866 12.9346 19.1421 13.0069C19.0973 13.0796 19.1249 13.1875 19.2058 13.2489C19.2867 13.311 19.3928 13.2994 19.4407 13.222C19.4889 13.1442 19.4579 13.0345 19.374 12.9778Z" fill="#642908"/>
<path d="M20.0506 11.3879C19.9559 11.357 19.8602 11.3999 19.8343 11.4816C19.809 11.5645 19.8619 11.66 19.9549 11.6971C20.0483 11.7341 20.1474 11.6927 20.1746 11.6044C20.2019 11.5161 20.1457 11.4188 20.0506 11.3879Z" fill="#642908"/>
<path d="M20.3159 9.6613C20.2165 9.65803 20.1346 9.7267 20.1299 9.81354C20.1251 9.90037 20.1999 9.97813 20.2987 9.98721C20.3974 9.9963 20.4837 9.92872 20.4884 9.83534C20.4931 9.74196 20.4149 9.66384 20.3159 9.6613Z" fill="#642908"/>
<path d="M14.5125 15.87C14.432 15.8744 14.3686 15.963 14.3713 16.0702C14.374 16.177 14.4464 16.2621 14.5327 16.2566C14.619 16.2515 14.6817 16.1581 14.6736 16.052C14.6651 15.9452 14.5934 15.8657 14.5125 15.87Z" fill="#642908"/>
<path d="M16.0598 15.5514C15.9833 15.579 15.9443 15.6825 15.9729 15.7853C16.0015 15.8871 16.0918 15.9481 16.1737 15.9194C16.2553 15.8896 16.2934 15.7828 16.2593 15.6818C16.2253 15.5819 16.136 15.5234 16.0598 15.5514Z" fill="#642908"/>
<path d="M17.4744 14.8051C17.4074 14.8538 17.3946 14.9638 17.4471 15.055C17.4997 15.1459 17.6018 15.1797 17.6736 15.1273C17.7454 15.0761 17.7561 14.9617 17.6989 14.8741C17.6412 14.7869 17.5415 14.7564 17.4744 14.8051Z" fill="#642908"/>
<path d="M18.8948 13.6874C18.8183 13.6195 18.7145 13.618 18.6616 13.6834C18.6084 13.7488 18.6229 13.8597 18.6957 13.9327C18.7684 14.0057 18.8749 14.0094 18.9315 13.9396C18.9885 13.8687 18.971 13.755 18.8948 13.6874Z" fill="#642908"/>
<path d="M19.7615 12.2061C19.6708 12.1629 19.5708 12.1905 19.5354 12.2686C19.5 12.3467 19.5411 12.4488 19.6284 12.4993C19.7163 12.5491 19.8198 12.5229 19.8582 12.439C19.8963 12.3554 19.8518 12.2512 19.7615 12.2061Z" fill="#642908"/>
<path d="M20.2363 10.5348C20.1382 10.518 20.0483 10.5736 20.0331 10.6587C20.0179 10.744 20.0823 10.8316 20.1793 10.8549C20.2764 10.8781 20.3697 10.8229 20.3859 10.7313C20.4024 10.6398 20.334 10.5518 20.2363 10.5348Z" fill="#642908"/>
<path d="M22.369 10.0617C22.2915 9.99084 22.2143 9.91164 22.1567 9.81281C22.0991 9.71398 22.0617 9.59553 22.062 9.44329C22.0617 9.29069 22.0991 9.17261 22.1567 9.07378C22.2143 8.97495 22.2912 8.89611 22.369 8.8249C22.523 8.68356 22.6783 8.57383 22.6622 8.41251C22.6453 8.25191 22.4714 8.18179 22.2918 8.08042C22.2015 8.02919 22.1102 7.97069 22.0337 7.88785C21.9572 7.80501 21.8966 7.69855 21.8652 7.54958C21.8336 7.40061 21.846 7.27635 21.8817 7.1659C21.9171 7.05581 21.9761 6.95989 22.0368 6.87196C22.1581 6.69683 22.2865 6.55222 22.2373 6.39925C22.1877 6.24629 22.0034 6.21977 21.8073 6.16417C21.6098 6.10786 21.4036 6.02465 21.2816 5.74961C21.2196 5.61227 21.2058 5.488 21.2179 5.3721C21.2297 5.25619 21.2671 5.14865 21.3082 5.04837C21.3898 4.84817 21.4855 4.67667 21.4059 4.53933C21.3254 4.40235 21.1407 4.42088 20.9379 4.41398C20.734 4.40671 20.5157 4.37547 20.3401 4.13675C20.2518 4.01721 20.2127 3.89986 20.2003 3.78395C20.1881 3.66805 20.2026 3.55432 20.2218 3.44678C20.2602 3.23204 20.3182 3.04202 20.2124 2.9272C20.1062 2.81312 19.9297 2.87561 19.7305 2.91703C19.6308 2.93774 19.5253 2.95373 19.4178 2.94028C19.3103 2.92684 19.2011 2.88469 19.0906 2.78913C18.8695 2.59984 18.8406 2.36439 18.8331 2.14457C18.8267 1.92621 18.8439 1.7271 18.7169 1.64026C18.5899 1.55415 18.4305 1.65734 18.2451 1.74563C18.1521 1.78959 18.0524 1.82992 17.9449 1.843C17.8374 1.85572 17.7222 1.84046 17.5944 1.77397C17.3397 1.64244 17.2625 1.42008 17.2103 1.20716C17.1587 0.995702 17.1338 0.797319 16.9923 0.743545C16.8504 0.690498 16.7163 0.82893 16.5535 0.959732C16.4723 1.02513 16.383 1.08872 16.2809 1.12723C16.1785 1.16538 16.0632 1.17846 15.9251 1.14467C15.7869 1.11088 15.6882 1.04548 15.611 0.963001C15.5342 0.880887 15.4796 0.782059 15.4328 0.685048C15.3387 0.49139 15.2734 0.303908 15.1244 0.285741C14.9751 0.268301 14.8737 0.435799 14.742 0.601844C14.6763 0.685048 14.6028 0.768616 14.5115 0.830747C14.4195 0.892878 14.31 0.933208 14.1684 0.932844C14.0269 0.932844 13.9177 0.892878 13.8257 0.830747C13.7344 0.76898 13.661 0.685412 13.5952 0.601844C13.4635 0.435436 13.3624 0.268301 13.2128 0.285741C13.0638 0.303908 12.9985 0.49139 12.9045 0.685048C12.8569 0.782059 12.8023 0.880887 12.7259 0.963001C12.649 1.04548 12.5503 1.11088 12.4121 1.14467C12.274 1.17846 12.1587 1.16538 12.0563 1.12723C11.9542 1.08872 11.8652 1.02513 11.7837 0.959732C11.6213 0.829294 11.4871 0.690498 11.3449 0.743545C11.2031 0.797319 11.1785 0.995702 11.1269 1.20716C11.075 1.42008 10.9975 1.64244 10.7424 1.77397C10.6147 1.84046 10.4998 1.85572 10.3923 1.843C10.2848 1.82992 10.1851 1.78959 10.0921 1.74563C9.90641 1.65734 9.74735 1.55415 9.61998 1.64026C9.49328 1.72674 9.51046 1.92621 9.50372 2.14457C9.49665 2.36439 9.46767 2.59984 9.24661 2.78913C9.13575 2.88469 9.02725 2.92648 8.91941 2.94028C8.81226 2.95336 8.70611 2.93774 8.6067 2.91703C8.40755 2.87561 8.23132 2.81312 8.12483 2.9272C8.01902 3.04202 8.07664 3.23204 8.1154 3.44678C8.13494 3.55396 8.14943 3.66805 8.13696 3.78395C8.12449 3.89986 8.0854 4.01721 7.99678 4.13675C7.82155 4.37474 7.6032 4.40671 7.39933 4.41398C7.19647 4.42125 7.01214 4.40235 6.93127 4.53933C6.85175 4.67631 6.94711 4.84817 7.029 5.048C7.06977 5.14828 7.10717 5.25583 7.1193 5.37174C7.1311 5.48764 7.11694 5.6119 7.05562 5.74924C6.93363 6.02429 6.72707 6.10749 6.52994 6.16381C6.33348 6.21977 6.14949 6.24593 6.09962 6.39889C6.05042 6.55186 6.17881 6.69646 6.30046 6.87159C6.36112 6.95952 6.41975 7.05544 6.45546 7.16553C6.49085 7.27599 6.50332 7.40025 6.47164 7.54922C6.4403 7.69855 6.37999 7.80464 6.30349 7.88748C6.227 7.97033 6.13534 8.02919 6.04537 8.08005C5.8661 8.18142 5.69189 8.25155 5.67504 8.41214C5.65853 8.5731 5.81387 8.68319 5.9682 8.82453C6.04537 8.89538 6.12321 8.97459 6.1805 9.07342C6.23812 9.17188 6.27519 9.29033 6.27519 9.44293C6.27519 9.59517 6.23812 9.71325 6.1805 9.81244C6.12321 9.91091 6.04571 9.99012 5.9682 10.0613C5.81387 10.203 5.65853 10.312 5.67504 10.4734C5.69189 10.6343 5.86576 10.7044 6.04537 10.8062C6.13534 10.857 6.227 10.9155 6.30349 10.998C6.37999 11.0812 6.4403 11.1873 6.47164 11.3366C6.50332 11.4856 6.49118 11.6102 6.45546 11.7203C6.42008 11.8308 6.36078 11.9263 6.30046 12.015C6.17915 12.1901 6.05042 12.334 6.09962 12.4877C6.14949 12.6407 6.33348 12.6668 6.52994 12.7224C6.72707 12.7787 6.93329 12.8619 7.05562 13.137C7.11728 13.275 7.13143 13.3986 7.1193 13.5145C7.10717 13.6304 7.07011 13.7383 7.029 13.8386C6.94711 14.0388 6.85175 14.2103 6.93127 14.3476C7.01181 14.4842 7.19647 14.4653 7.39933 14.4722C7.6032 14.4799 7.82155 14.5111 7.99678 14.7506C8.0854 14.8694 8.12449 14.9864 8.13696 15.1034C8.14909 15.2185 8.1346 15.3323 8.1154 15.4402C8.07698 15.6553 8.01902 15.8446 8.12483 15.9597C8.23098 16.0735 8.40755 16.011 8.6067 15.9696C8.70611 15.9488 8.81192 15.9325 8.91941 15.9467C9.02657 15.9597 9.13575 16.0015 9.24661 16.0975C9.46733 16.2868 9.49665 16.5222 9.50372 16.7413C9.51046 16.9604 9.49294 17.1591 9.61998 17.246C9.74735 17.3321 9.90641 17.2289 10.0921 17.1413C10.1847 17.0974 10.2845 17.0567 10.3923 17.0439C10.4998 17.0312 10.6147 17.0465 10.7424 17.1126C10.9975 17.2438 11.0747 17.4665 11.1269 17.6791C11.1785 17.8905 11.2034 18.0896 11.3449 18.143C11.4871 18.1961 11.6206 18.0569 11.7837 17.9269C11.8649 17.8611 11.9542 17.7982 12.0563 17.7594C12.1587 17.7216 12.274 17.7078 12.4121 17.7416C12.5503 17.7757 12.649 17.8407 12.7259 17.9232C12.8027 18.0057 12.8573 18.1045 12.9045 18.2012C12.9985 18.3952 13.0638 18.5823 13.2128 18.6008C13.3621 18.6187 13.4635 18.4512 13.5952 18.2847C13.6606 18.2015 13.7344 18.118 13.8257 18.0562C13.9174 17.9941 14.0269 17.9537 14.1684 17.9537C14.31 17.9537 14.4191 17.9941 14.5115 18.0562C14.6028 18.118 14.6759 18.2012 14.742 18.2847C14.8737 18.4512 14.9748 18.6187 15.1244 18.6008C15.2734 18.5823 15.3387 18.3956 15.4328 18.2012C15.4799 18.1045 15.5345 18.0057 15.611 17.9232C15.6882 17.8407 15.7866 17.7757 15.9251 17.7416C16.0632 17.7078 16.1785 17.7212 16.2809 17.7594C16.383 17.7979 16.4716 17.8611 16.5535 17.9269C16.716 18.0566 16.8504 18.1961 16.9923 18.143C17.1341 18.0896 17.1587 17.8909 17.2103 17.6791C17.2622 17.4665 17.3397 17.2441 17.5944 17.1126C17.7222 17.0461 17.8374 17.0309 17.9449 17.0439C18.0521 17.0563 18.1518 17.097 18.2451 17.1413C18.4308 17.2289 18.5899 17.3321 18.7169 17.246C18.8439 17.1595 18.8267 16.9604 18.8331 16.7413C18.8402 16.5218 18.8692 16.2864 19.0906 16.0975C19.2011 16.0015 19.31 15.9597 19.4178 15.9467C19.525 15.9329 19.6308 15.9492 19.7305 15.9696C19.9297 16.0106 20.1059 16.0735 20.2124 15.9597C20.3182 15.8449 20.2606 15.6553 20.2218 15.4402C20.2023 15.3323 20.1878 15.2189 20.2003 15.1034C20.2124 14.9867 20.2518 14.8694 20.3401 14.7506C20.5157 14.5115 20.734 14.4799 20.9379 14.4722C21.1404 14.4653 21.3251 14.4842 21.4059 14.3476C21.4855 14.2103 21.3898 14.0384 21.3082 13.8386C21.2674 13.7387 21.23 13.6308 21.2179 13.5145C21.2058 13.3982 21.2199 13.275 21.2816 13.137C21.4032 12.8619 21.6098 12.7791 21.8073 12.7224C22.0034 12.6668 22.1877 12.6403 22.2373 12.4877C22.2865 12.334 22.1584 12.1905 22.0368 12.015C21.9761 11.9267 21.9175 11.8308 21.8817 11.7203C21.8464 11.6102 21.8336 11.4856 21.8652 11.3366C21.8966 11.1877 21.9572 11.0812 22.0337 10.998C22.1102 10.9152 22.2015 10.8567 22.2918 10.8062C22.4711 10.7044 22.6453 10.6343 22.6622 10.4734C22.6783 10.3128 22.523 10.2034 22.369 10.0617ZM20.8108 12.4096C20.451 13.3474 19.9169 14.2059 19.2513 14.9231C18.5858 15.6407 17.7895 16.2166 16.9202 16.6043C16.0514 16.9942 15.1106 17.1933 14.1694 17.1922C13.2286 17.1933 12.2878 16.9942 11.4187 16.6043C10.5497 16.2166 9.75309 15.6407 9.0879 14.9231C8.42204 14.2059 7.88827 13.3474 7.52805 12.4096C7.16715 11.4729 6.98216 10.4585 6.98317 9.44366C6.98216 8.42886 7.16715 7.41478 7.52805 6.47773C7.88827 5.54032 8.42204 4.68176 9.0879 3.96453C9.75309 3.24694 10.5497 2.67105 11.4187 2.28301C12.2878 1.89351 13.2286 1.6944 14.1694 1.69513C15.1106 1.6944 16.0514 1.89351 16.9202 2.28301C17.7895 2.67141 18.5858 3.24694 19.2513 3.96453C19.9169 4.68176 20.451 5.54032 20.8108 6.47773C21.1717 7.41478 21.3567 8.42886 21.3561 9.44366C21.3567 10.4585 21.1721 11.4729 20.8108 12.4096Z" fill="#642908"/>
<path d="M8.30586 10.6587C8.29103 10.574 8.20106 10.518 8.10301 10.5348C8.00528 10.5518 7.93688 10.6398 7.95339 10.7313C7.96956 10.8229 8.06291 10.8781 8.15962 10.8549C8.257 10.8312 8.32102 10.744 8.30586 10.6587Z" fill="#642908"/>
<path d="M8.57801 12.2061C8.4877 12.2508 8.44355 12.3551 8.48129 12.439C8.51937 12.5229 8.62316 12.5491 8.71077 12.4993C8.79872 12.4488 8.83949 12.3467 8.80411 12.2686C8.76839 12.1908 8.66831 12.1629 8.57801 12.2061Z" fill="#642908"/>
<path d="M9.44448 13.6874C9.36799 13.7554 9.35114 13.8687 9.40809 13.9392C9.46504 14.009 9.57152 14.0057 9.6443 13.9323C9.71709 13.8597 9.73158 13.7485 9.67834 13.6831C9.62476 13.6177 9.52098 13.6195 9.44448 13.6874Z" fill="#642908"/>
<path d="M10.8647 14.8051C10.798 14.7564 10.6979 14.7869 10.6406 14.8737C10.583 14.9613 10.5938 15.0761 10.6656 15.127C10.7377 15.1793 10.8398 15.1455 10.892 15.0547C10.9446 14.9635 10.9318 14.8538 10.8647 14.8051Z" fill="#642908"/>
<path d="M12.2793 15.5514C12.2028 15.5237 12.1142 15.5819 12.0802 15.6814C12.0455 15.7824 12.0839 15.8893 12.1658 15.9191C12.2476 15.9478 12.338 15.8867 12.3666 15.785C12.3952 15.6825 12.3558 15.579 12.2793 15.5514Z" fill="#642908"/>
<path d="M13.8272 15.87C13.7467 15.8642 13.6742 15.9449 13.6658 16.0517C13.6574 16.1581 13.7201 16.2515 13.8067 16.2562C13.8933 16.262 13.9654 16.1767 13.9681 16.0698C13.9711 15.963 13.9074 15.8744 13.8272 15.87Z" fill="#642908"/>
<path d="M8.04108 9.98685C8.13982 9.97813 8.21429 9.90038 8.20991 9.81318C8.20519 9.72634 8.12297 9.65767 8.0239 9.66094C7.92449 9.66385 7.84632 9.74197 7.85103 9.83498C7.85609 9.92836 7.94201 9.99594 8.04108 9.98685Z" fill="#642908"/>
<path d="M8.505 11.4813C8.47972 11.3995 8.38402 11.3566 8.28866 11.3875C8.19397 11.4188 8.13702 11.5158 8.16432 11.6041C8.19161 11.6923 8.29136 11.7334 8.38402 11.6967C8.47737 11.66 8.53061 11.5641 8.505 11.4813Z" fill="#642908"/>
<path d="M8.96557 12.9778C8.88133 13.0345 8.85033 13.1442 8.89852 13.222C8.9467 13.2994 9.05251 13.311 9.13305 13.2489C9.21392 13.1875 9.24189 13.0796 9.19707 13.0069C9.15259 12.9342 9.04982 12.9208 8.96557 12.9778Z" fill="#642908"/>
<path d="M10.2369 14.2866C10.1763 14.2295 10.0739 14.2452 10.0061 14.3233C9.93873 14.4018 9.93536 14.5169 10.0001 14.578C10.0648 14.6394 10.1706 14.6205 10.2336 14.5384C10.2969 14.4559 10.2979 14.344 10.2369 14.2866Z" fill="#642908"/>
<path d="M11.5495 15.2298C11.4774 15.1913 11.3821 15.2353 11.3356 15.3297C11.2894 15.4246 11.3143 15.5361 11.3915 15.5768C11.469 15.6182 11.566 15.5706 11.6068 15.4729C11.6483 15.3755 11.622 15.2676 11.5495 15.2298Z" fill="#642908"/>
<path d="M13.0426 15.7661C12.9638 15.7494 12.8826 15.8191 12.861 15.9238C12.8398 16.028 12.8907 16.1287 12.9753 16.1465C13.0605 16.1643 13.1421 16.0898 13.1579 15.9852C13.1734 15.8791 13.1218 15.7824 13.0426 15.7661Z" fill="#642908"/>
<path d="M12.9749 2.74081C12.8903 2.75825 12.8394 2.85926 12.8607 2.96353C12.8822 3.06818 12.9634 3.13757 13.0423 3.12122C13.1215 3.10524 13.1734 3.00822 13.1575 2.90249C13.142 2.79676 13.0601 2.72337 12.9749 2.74081Z" fill="#642908"/>
<path d="M11.3915 3.31016C11.3143 3.35122 11.2894 3.46313 11.3356 3.5576C11.3821 3.65206 11.4774 3.69603 11.5495 3.65824C11.622 3.62009 11.6483 3.51182 11.6068 3.41444C11.566 3.31707 11.4693 3.26947 11.3915 3.31016Z" fill="#642908"/>
<path d="M10.0005 4.30933C9.93584 4.37074 9.93888 4.48555 10.0066 4.56403C10.0743 4.64251 10.1768 4.65777 10.2374 4.60073C10.2984 4.54332 10.2974 4.43178 10.2344 4.34894C10.1711 4.2661 10.0656 4.24793 10.0005 4.30933Z" fill="#642908"/>
<path d="M9.13339 5.63806C9.05251 5.57665 8.94637 5.58791 8.89852 5.66531C8.85033 5.74306 8.88133 5.85279 8.96557 5.90947C9.04982 5.96615 9.1526 5.95234 9.19741 5.88004C9.24223 5.80773 9.21392 5.70019 9.13339 5.63806Z" fill="#642908"/>
<path d="M8.28859 7.49908C8.38361 7.52996 8.47931 7.48745 8.50492 7.40533C8.53053 7.32286 8.47729 7.2273 8.38429 7.1906C8.29162 7.15354 8.19188 7.1946 8.16458 7.28289C8.13695 7.37118 8.1939 7.46856 8.28859 7.49908Z" fill="#642908"/>
<path d="M8.02384 9.22602C8.12291 9.22893 8.20513 9.16062 8.20985 9.07415C8.21423 8.98731 8.13976 8.90919 8.04102 8.90011C7.94195 8.89139 7.85602 8.95897 7.85131 9.05199C7.84625 9.14537 7.92443 9.22348 8.02384 9.22602Z" fill="#642908"/>
<path d="M13.8067 2.63036C13.7201 2.63581 13.6574 2.72846 13.6658 2.83492C13.6739 2.94138 13.7463 3.02167 13.8272 3.01695C13.9074 3.01186 13.9711 2.92321 13.9684 2.81639C13.9654 2.70993 13.8933 2.62527 13.8067 2.63036Z" fill="#642908"/>
<path d="M12.1659 2.96826C12.084 2.99805 12.0459 3.10487 12.0803 3.20552C12.1143 3.3058 12.2029 3.36321 12.2794 3.33559C12.3559 3.30834 12.3953 3.20479 12.3667 3.10233C12.3381 3.00023 12.2477 2.93919 12.1659 2.96826Z" fill="#642908"/>
<path d="M10.6656 3.75961C10.5938 3.81157 10.583 3.92566 10.6406 4.01286C10.6979 4.10006 10.798 4.13021 10.8647 4.08189C10.9318 4.03357 10.9446 3.92275 10.8923 3.83191C10.8398 3.74181 10.7377 3.70838 10.6656 3.75961Z" fill="#642908"/>
<path d="M9.40811 4.94808C9.35117 5.0182 9.36835 5.13157 9.44451 5.19987C9.52134 5.26782 9.62479 5.26891 9.67803 5.20314C9.73127 5.13774 9.71678 5.02729 9.64399 4.95426C9.57121 4.88123 9.46473 4.87832 9.40811 4.94808Z" fill="#642908"/>
<path d="M8.71048 6.38799C8.62287 6.33821 8.51942 6.36474 8.481 6.44831C8.44326 6.53187 8.48774 6.63651 8.57772 6.68084C8.66836 6.72517 8.76811 6.69683 8.80383 6.61907C8.83921 6.54059 8.79843 6.43777 8.71048 6.38799Z" fill="#642908"/>
<path d="M8.10301 8.35255C8.20106 8.36927 8.29103 8.31368 8.30586 8.22793C8.32102 8.14291 8.25666 8.05534 8.15962 8.03245C8.06291 8.0092 7.96956 8.0637 7.95339 8.15526C7.93688 8.24719 8.00528 8.33584 8.10301 8.35255Z" fill="#642908"/>
<path d="M19.0384 4.19416C18.4009 3.50673 17.6379 2.95482 16.8049 2.58313C15.973 2.21034 15.0719 2.01923 14.1698 2.01995C13.2674 2.01923 12.3667 2.20998 11.5347 2.58313C10.702 2.95482 9.93913 3.50673 9.30157 4.19416C8.66369 4.8816 8.15216 5.70456 7.80744 6.602C7.46171 7.49944 7.28412 8.47064 7.28479 9.44366C7.28412 10.4163 7.46137 11.3879 7.80744 12.2853C8.15183 13.1828 8.66369 14.0054 9.30157 14.6932C9.93913 15.3806 10.702 15.9321 11.5347 16.3038C12.367 16.6766 13.2677 16.8677 14.1698 16.8674C15.0722 16.8677 15.973 16.677 16.8049 16.3038C17.6379 15.9325 18.4009 15.3806 19.0384 14.6932C19.6763 14.0054 20.1878 13.1828 20.5325 12.2853C20.8783 11.3875 21.0559 10.416 21.0552 9.44366C21.0559 8.47064 20.8786 7.49944 20.5325 6.602C20.1878 5.70456 19.676 4.8816 19.0384 4.19416ZM20.3071 12.184C19.9749 13.0501 19.4809 13.8437 18.8655 14.5068C18.2506 15.1706 17.5143 15.7029 16.7116 16.0611C15.9086 16.4201 15.0406 16.6054 14.1695 16.6043C13.2984 16.6054 12.4304 16.4201 11.6277 16.0611C10.825 15.7029 10.0887 15.1706 9.47343 14.5068C8.85812 13.844 8.36445 13.0501 8.0322 12.184C7.69893 11.3192 7.52775 10.3829 7.52876 9.44366C7.52775 8.50443 7.69893 7.56848 8.0322 6.70301C8.36445 5.83717 8.85812 5.04328 9.47343 4.38019C10.0884 3.71674 10.825 3.18409 11.6277 2.82583C12.4304 2.46613 13.2984 2.28192 14.1695 2.28301C15.0406 2.28228 15.9089 2.46613 16.7116 2.82583C17.5143 3.18409 18.2502 3.71674 18.8655 4.38019C19.4809 5.04328 19.9749 5.83717 20.3071 6.70301C20.6404 7.56848 20.8112 8.50443 20.8105 9.44366C20.8112 10.3829 20.6407 11.3192 20.3071 12.184Z" fill="#642908"/>
<path d="M20.1793 8.03282C20.0826 8.05571 20.0179 8.14291 20.0331 8.22829C20.0482 8.31367 20.1382 8.36963 20.2363 8.35292C20.334 8.3362 20.4024 8.24755 20.3859 8.15599C20.3701 8.06406 20.2764 8.0092 20.1793 8.03282Z" fill="#642908"/>
<path d="M19.7615 6.68048C19.8518 6.63615 19.896 6.53188 19.8583 6.44795C19.8202 6.36474 19.7164 6.33822 19.6284 6.38763C19.5408 6.43741 19.5 6.54023 19.5354 6.61835C19.5708 6.69647 19.6712 6.72481 19.7615 6.68048Z" fill="#642908"/>
<path d="M18.6954 4.95463C18.6226 5.02766 18.6081 5.13811 18.6614 5.20351C18.7143 5.26928 18.8184 5.26819 18.8946 5.20024C18.9711 5.13193 18.9882 5.01857 18.931 4.94845C18.8747 4.87832 18.7682 4.8816 18.6954 4.95463Z" fill="#642908"/>
<path d="M17.6739 3.75961C17.6018 3.70801 17.4997 3.74144 17.4471 3.83227C17.3946 3.92311 17.4074 4.03393 17.4744 4.08225C17.5415 4.13057 17.6412 4.10042 17.6989 4.01322C17.7561 3.92565 17.7457 3.81156 17.6739 3.75961Z" fill="#642908"/>
<path d="M16.1737 2.96826C16.0918 2.93883 16.0015 3.00023 15.9729 3.10233C15.9443 3.20479 15.9833 3.30834 16.0598 3.33559C16.1363 3.36321 16.2253 3.30543 16.2593 3.20552C16.2934 3.10487 16.2553 2.99805 16.1737 2.96826Z" fill="#642908"/>
<path d="M14.5331 2.63035C14.4465 2.62527 14.374 2.70956 14.3717 2.81675C14.369 2.92357 14.4323 3.01222 14.5129 3.01731C14.5937 3.02203 14.6655 2.94173 14.6743 2.83528C14.682 2.72882 14.619 2.6358 14.5331 2.63035Z" fill="#642908"/>
<path d="M20.2987 8.9001C20.1999 8.90918 20.1251 8.9873 20.1299 9.07414C20.1346 9.16061 20.2165 9.22892 20.3159 9.22601C20.4149 9.22311 20.4931 9.14499 20.4887 9.05198C20.4837 8.95896 20.3974 8.89102 20.2987 8.9001Z" fill="#642908"/>
<path d="M19.8343 7.4057C19.8599 7.48781 19.9556 7.53033 20.0506 7.49944C20.1457 7.46892 20.2023 7.37118 20.175 7.28326C20.1477 7.19496 20.0486 7.15391 19.9553 7.19097C19.8619 7.2273 19.809 7.32322 19.8343 7.4057Z" fill="#642908"/>
<path d="M19.2061 5.63806C19.1252 5.69983 19.0976 5.80774 19.1424 5.88005C19.1872 5.95235 19.29 5.96616 19.3742 5.90948C19.4581 5.8528 19.4891 5.74307 19.4413 5.66531C19.3928 5.58828 19.2869 5.57666 19.2061 5.63806Z" fill="#642908"/>
<path d="M18.3385 4.30933C18.2738 4.24793 18.1687 4.26646 18.1053 4.34894C18.042 4.43178 18.0413 4.54332 18.102 4.60073C18.1626 4.65814 18.2651 4.64251 18.3331 4.56403C18.4005 4.48555 18.4039 4.37074 18.3385 4.30933Z" fill="#642908"/>
<path d="M16.9477 3.31016C16.8705 3.26947 16.7731 3.31743 16.7324 3.41444C16.6912 3.51181 16.7175 3.61972 16.7896 3.65824C16.8624 3.69602 16.9575 3.65206 17.0036 3.55759C17.0498 3.46313 17.0252 3.35085 16.9477 3.31016Z" fill="#642908"/>
<path d="M15.3641 2.74081C15.2792 2.72337 15.1973 2.79713 15.1818 2.9025C15.166 3.00823 15.2175 3.10524 15.2967 3.12123C15.3759 3.13758 15.4571 3.06818 15.4783 2.96354C15.5003 2.8589 15.4487 2.75825 15.3641 2.74081Z" fill="#642908"/>
<circle cx="14.2841" cy="9.41756" r="4.16589" fill="#642908"/>
</g>
<defs>
<clipPath id="clip0_0_1">
<rect width="480" height="926" fill="white" transform="translate(-43 -185)"/>
</clipPath>
</defs>
</svg>
