<svg width="159" height="41" viewBox="0 0 159 41" fill="none" xmlns="http://www.w3.org/2000/svg">
<rect x="0.908447" y="0.17334" width="157.093" height="40.4928" rx="20.2464" fill="#C45C21"/>
<path d="M29.2561 27.5708H26.7498V13.5531H29.2561V20.0034H29.4213L34.9487 13.5531H37.8242L32.5299 19.6634L38.2419 27.5708H35.1819L30.7521 21.3828L29.2561 23.1022V27.5708ZM40.116 27.5708V16.9433H42.4377V18.6434H42.6028C42.8619 18.0346 43.2569 17.5651 43.788 17.2348C44.3255 16.898 44.9828 16.7296 45.76 16.7296C46.9386 16.7296 47.8421 17.0729 48.4703 17.7593C49.1049 18.4458 49.4223 19.4237 49.4223 20.6931V27.5708H47.0131V21.2662C47.0131 19.6407 46.2975 18.8279 44.8662 18.8279C44.1474 18.8279 43.5775 19.0578 43.1565 19.5176C42.7356 19.9774 42.5251 20.5992 42.5251 21.3828V27.5708H40.116ZM56.7266 27.7845C55.1335 27.7845 53.8836 27.2956 52.9769 26.3177C52.0702 25.3333 51.6169 23.9797 51.6169 22.2571C51.6169 20.5474 52.0735 19.2003 52.9866 18.2159C53.8998 17.2251 55.1464 16.7296 56.7266 16.7296C58.3133 16.7296 59.56 17.2218 60.4667 18.2062C61.3798 19.1906 61.8364 20.5409 61.8364 22.2571C61.8364 23.9797 61.3798 25.3333 60.4667 26.3177C59.56 27.2956 58.3133 27.7845 56.7266 27.7845ZM54.7741 24.8508C55.2339 25.4596 55.8847 25.7639 56.7266 25.7639C57.5685 25.7639 58.2162 25.4596 58.6695 24.8508C59.1293 24.2356 59.3592 23.371 59.3592 22.2571C59.3592 21.1496 59.1293 20.2883 58.6695 19.6731C58.2097 19.0578 57.5621 18.7502 56.7266 18.7502C55.8847 18.7502 55.2339 19.0578 54.7741 19.6731C54.3143 20.2883 54.0843 21.1496 54.0843 22.2571C54.0843 23.371 54.3143 24.2356 54.7741 24.8508ZM77.9322 16.9433L75.0568 27.5708H72.5213L70.4522 19.9159H70.287L68.2276 27.5708H65.7213L62.8459 16.9433H65.2745L67.0425 24.8799H67.2076L69.2476 16.9433H71.5499L73.6093 24.8799H73.7745L75.5328 16.9433H77.9322ZM99.7976 27.5708H97.4661V17.7108H97.3301L93.4541 27.0268H91.6667L87.7907 17.7108H87.6547V27.5708H85.3232V13.5531H88.257L92.473 23.7628H92.6478L96.8638 13.5531H99.7976V27.5708ZM107.452 27.7845C105.859 27.7845 104.609 27.2956 103.702 26.3177C102.795 25.3333 102.342 23.9797 102.342 22.2571C102.342 20.5474 102.798 19.2003 103.712 18.2159C104.625 17.2251 105.871 16.7296 107.452 16.7296C109.038 16.7296 110.285 17.2218 111.192 18.2062C112.105 19.1906 112.561 20.5409 112.561 22.2571C112.561 23.9797 112.105 25.3333 111.192 26.3177C110.285 27.2956 109.038 27.7845 107.452 27.7845ZM105.499 24.8508C105.959 25.4596 106.61 25.7639 107.452 25.7639C108.294 25.7639 108.941 25.4596 109.395 24.8508C109.854 24.2356 110.084 23.371 110.084 22.2571C110.084 21.1496 109.854 20.2883 109.395 19.6731C108.935 19.0578 108.287 18.7502 107.452 18.7502C106.61 18.7502 105.959 19.0578 105.499 19.6731C105.039 20.2883 104.809 21.1496 104.809 22.2571C104.809 23.371 105.039 24.2356 105.499 24.8508ZM114.853 27.5708V16.9433H117.175V18.5948H117.34C117.489 18.0637 117.823 17.6266 118.341 17.2833C118.865 16.9401 119.467 16.7685 120.147 16.7685C120.581 16.7685 120.915 16.8041 121.148 16.8753V19.1096C120.902 19.019 120.491 18.9736 119.914 18.9736C119.131 18.9736 118.493 19.2003 118.001 19.6536C117.508 20.1005 117.262 20.6931 117.262 21.4314V27.5708H114.853ZM127.18 18.6434C126.461 18.6434 125.868 18.8797 125.402 19.3525C124.936 19.8253 124.677 20.4502 124.625 21.2274H129.628C129.602 20.4373 129.369 19.8091 128.928 19.3428C128.488 18.8765 127.905 18.6434 127.18 18.6434ZM129.647 24.6468H131.93C131.703 25.6182 131.169 26.3857 130.327 26.9491C129.492 27.506 128.452 27.7845 127.209 27.7845C125.648 27.7845 124.421 27.2988 123.527 26.3274C122.64 25.3495 122.196 24.0056 122.196 22.2959C122.196 20.5862 122.643 19.2327 123.537 18.2354C124.431 17.2315 125.648 16.7296 127.19 16.7296C128.705 16.7296 129.89 17.2056 130.745 18.1576C131.606 19.1032 132.037 20.4146 132.037 22.0919V22.8691H124.615V22.9954C124.648 23.8826 124.9 24.5853 125.373 25.1034C125.852 25.615 126.487 25.8708 127.277 25.8708C128.495 25.8708 129.285 25.4628 129.647 24.6468Z" fill="white"/>
</svg>
