<svg width="142" height="119" viewBox="0 0 142 119" fill="none" xmlns="http://www.w3.org/2000/svg">
<g filter="url(#filter0_i_205_3)">
<rect y="0.919006" width="142" height="118" rx="26" fill="#F1DBC2"/>
</g>
<path d="M74.3376 80.8714L56.3566 73.2931C56.14 73.2015 56 72.9948 56 72.7681V46.3116C56 45.8983 56.4366 45.6216 56.825 45.7849L74.8076 53.3648C75.0226 53.4548 75.1625 53.6615 75.1625 53.8898V80.3464C75.1625 80.7581 74.7292 81.0348 74.3376 80.8714Z" fill="#642908"/>
<path d="M75.1625 52.4199L60.7331 43.0783C60.5365 42.9516 60.2748 43.0866 60.2748 43.3166V45.9566C60.2748 46.0716 60.3448 46.1733 60.4515 46.2199L75.1625 52.4199Z" fill="#642908"/>
<path d="M75.1625 50.7648L64.6379 40.9982C64.4512 40.8249 64.1396 40.9549 64.1396 41.2065V43.5765C64.1396 43.6732 64.1879 43.7632 64.2729 43.8165L75.1625 50.7648Z" fill="#642908"/>
<path d="M77.6608 80.8714L95.6433 73.2931C95.86 73.2015 96 72.9948 96 72.7681V46.3116C96 45.8983 95.5633 45.6216 95.175 45.7849L77.1924 53.3648C76.9758 53.4548 76.8358 53.6615 76.8358 53.8898V80.3464C76.8358 80.7581 77.2725 81.0348 77.6608 80.8714Z" fill="#642908"/>
<path d="M76.8358 52.4199L91.2669 43.0783C91.4635 42.9516 91.7252 43.0866 91.7252 43.3166V45.9566C91.7252 46.0716 91.6552 46.1733 91.5486 46.2199L76.8358 52.4199Z" fill="#642908"/>
<path d="M76.8358 50.7648L87.362 40.9982C87.5487 40.8249 87.8604 40.9549 87.8604 41.2065V43.5765C87.8604 43.6732 87.812 43.7632 87.727 43.8165L76.8358 50.7648Z" fill="#642908"/>
<defs>
<filter id="filter0_i_205_3" x="-5" y="-26.081" width="147" height="145" filterUnits="userSpaceOnUse" color-interpolation-filters="sRGB">
<feFlood flood-opacity="0" result="BackgroundImageFix"/>
<feBlend mode="normal" in="SourceGraphic" in2="BackgroundImageFix" result="shape"/>
<feColorMatrix in="SourceAlpha" type="matrix" values="0 0 0 0 0 0 0 0 0 0 0 0 0 0 0 0 0 0 127 0" result="hardAlpha"/>
<feMorphology radius="12" operator="dilate" in="SourceAlpha" result="effect1_innerShadow_205_3"/>
<feOffset dx="-5" dy="-71"/>
<feGaussianBlur stdDeviation="19.5"/>
<feComposite in2="hardAlpha" operator="arithmetic" k2="-1" k3="1"/>
<feColorMatrix type="matrix" values="0 0 0 0 0.954167 0 0 0 0 0.800546 0 0 0 0 0.620208 0 0 0 1 0"/>
<feBlend mode="normal" in2="shape" result="effect1_innerShadow_205_3"/>
</filter>
</defs>
</svg>
