<svg width="24" height="24" viewBox="0 0 24 24" fill="none" xmlns="http://www.w3.org/2000/svg">
<path d="M12 15.1579C14.8457 15.1579 17.1257 13.4653 17.1257 11.3684L17.1429 3.78947C17.1429 1.69263 14.8457 0 12 0C9.15429 0 6.85714 1.69263 6.85714 3.78947V11.3684C6.85714 13.4653 9.15429 15.1579 12 15.1579ZM9.94286 3.66316C9.94286 2.82947 10.8686 2.14737 12 2.14737C13.1314 2.14737 14.0571 2.82947 14.0571 3.66316L14.04 11.4947C14.04 12.3284 13.1314 13.0105 12 13.0105C10.8686 13.0105 9.94286 12.3284 9.94286 11.4947V3.66316ZM21.0857 11.3684C21.0857 15.1579 16.7314 17.8105 12 17.8105C7.26857 17.8105 2.91429 15.1579 2.91429 11.3684H0C0 15.6758 4.66286 19.2379 10.2857 19.8568V24H13.7143V19.8568C19.3371 19.2505 24 15.6884 24 11.3684H21.0857Z" fill="#642908"/>
</svg>
