<svg width="158" height="42" viewBox="0 0 158 42" fill="none" xmlns="http://www.w3.org/2000/svg">
<rect x="0.000610352" y="0.693848" width="157.093" height="40.4928" rx="20.2464" fill="#C45C21"/>
<path d="M32.2464 13.4739H39.0667C40.7542 13.4739 42.1214 14.0012 43.1683 15.0559C44.2229 16.1106 44.7503 17.4895 44.7503 19.1926C44.7503 20.8645 44.2073 22.2239 43.1214 23.2708C42.0433 24.3176 40.6487 24.8411 38.9378 24.8411H35.2698V30.384H32.2464V13.4739ZM35.2698 16.0051V22.3333H38.2581C39.344 22.3333 40.1839 22.0598 40.7776 21.5129C41.3792 20.9661 41.68 20.1926 41.68 19.1926C41.68 18.1614 41.3831 17.3723 40.7894 16.8254C40.2034 16.2786 39.3636 16.0051 38.2698 16.0051H35.2698ZM47.6487 30.384V17.5637H50.4495V19.5559H50.6487C50.8284 18.9153 51.2307 18.3879 51.8557 17.9739C52.4885 17.5598 53.2151 17.3528 54.0354 17.3528C54.5588 17.3528 54.9612 17.3958 55.2424 17.4817V20.177C54.9455 20.0676 54.4495 20.0129 53.7541 20.0129C52.8088 20.0129 52.0393 20.2864 51.4455 20.8333C50.8518 21.3723 50.5549 22.0872 50.5549 22.9778V30.384H47.6487ZM62.6994 30.6418C60.7775 30.6418 59.2697 30.052 58.176 28.8723C57.0822 27.6848 56.5353 26.052 56.5353 23.9739C56.5353 21.9114 57.0861 20.2864 58.1877 19.0989C59.2892 17.9036 60.7931 17.3059 62.6994 17.3059C64.6135 17.3059 66.1174 17.8997 67.2111 19.0872C68.3127 20.2747 68.8635 21.9036 68.8635 23.9739C68.8635 26.052 68.3127 27.6848 67.2111 28.8723C66.1174 30.052 64.6135 30.6418 62.6994 30.6418ZM60.3439 27.1028C60.8986 27.8372 61.6838 28.2043 62.6994 28.2043C63.715 28.2043 64.4963 27.8372 65.0431 27.1028C65.5978 26.3606 65.8752 25.3176 65.8752 23.9739C65.8752 22.6379 65.5978 21.5989 65.0431 20.8567C64.4885 20.1145 63.7072 19.7434 62.6994 19.7434C61.6838 19.7434 60.8986 20.1145 60.3439 20.8567C59.7892 21.5989 59.5119 22.6379 59.5119 23.9739C59.5119 25.3176 59.7892 26.3606 60.3439 27.1028ZM82.7306 21.8762H79.965C79.8243 21.2278 79.5118 20.7122 79.0275 20.3293C78.5431 19.9387 77.9142 19.7434 77.1407 19.7434C76.1407 19.7434 75.3595 20.1106 74.797 20.845C74.2423 21.5793 73.965 22.6106 73.965 23.9387C73.965 25.2825 74.2462 26.3293 74.8087 27.0793C75.3712 27.8293 76.1486 28.2043 77.1407 28.2043C77.8986 28.2043 78.5196 28.0286 79.004 27.677C79.4962 27.3254 79.8165 26.8176 79.965 26.1536H82.7306C82.5665 27.5208 81.9923 28.6106 81.0079 29.4231C80.0314 30.2356 78.7462 30.6418 77.1525 30.6418C75.2228 30.6418 73.7189 30.052 72.6407 28.8723C71.5626 27.6926 71.0236 26.0481 71.0236 23.9387C71.0236 21.8528 71.5626 20.2278 72.6407 19.0637C73.7189 17.8918 75.2189 17.3059 77.1407 17.3059C78.7501 17.3059 80.0431 17.7239 81.0196 18.5598C82.004 19.3879 82.5743 20.4934 82.7306 21.8762ZM90.7501 19.6145C89.8829 19.6145 89.168 19.8997 88.6055 20.47C88.043 21.0403 87.7305 21.7942 87.668 22.7317H93.7032C93.6719 21.7786 93.3907 21.0208 92.8594 20.4583C92.3282 19.8958 91.6251 19.6145 90.7501 19.6145ZM93.7266 26.8567H96.4805C96.2071 28.0286 95.5626 28.9543 94.5469 29.634C93.5391 30.3059 92.2852 30.6418 90.7852 30.6418C88.9024 30.6418 87.4219 30.0559 86.3438 28.884C85.2735 27.7043 84.7383 26.0833 84.7383 24.0208C84.7383 21.9583 85.2774 20.3254 86.3555 19.1223C87.4337 17.9114 88.9024 17.3059 90.7618 17.3059C92.5899 17.3059 94.0196 17.8801 95.0508 19.0286C96.0899 20.1692 96.6094 21.7512 96.6094 23.7747V24.7122H87.6563V24.8645C87.6954 25.9348 88.0001 26.7825 88.5704 27.4075C89.1485 28.0247 89.9141 28.3333 90.8672 28.3333C92.336 28.3333 93.2891 27.8411 93.7266 26.8567ZM104.77 19.6145C103.902 19.6145 103.188 19.8997 102.625 20.47C102.062 21.0403 101.75 21.7942 101.688 22.7317H107.723C107.691 21.7786 107.41 21.0208 106.879 20.4583C106.348 19.8958 105.645 19.6145 104.77 19.6145ZM107.746 26.8567H110.5C110.227 28.0286 109.582 28.9543 108.566 29.634C107.559 30.3059 106.305 30.6418 104.805 30.6418C102.922 30.6418 101.441 30.0559 100.363 28.884C99.293 27.7043 98.7578 26.0833 98.7578 24.0208C98.7578 21.9583 99.2969 20.3254 100.375 19.1223C101.453 17.9114 102.922 17.3059 104.781 17.3059C106.609 17.3059 108.039 17.8801 109.07 19.0286C110.109 20.1692 110.629 21.7512 110.629 23.7747V24.7122H101.676V24.8645C101.715 25.9348 102.02 26.7825 102.59 27.4075C103.168 28.0247 103.934 28.3333 104.887 28.3333C106.355 28.3333 107.309 27.8411 107.746 26.8567ZM118.051 30.595C116.426 30.595 115.141 30.0012 114.195 28.8137C113.25 27.6184 112.777 26.0012 112.777 23.9622C112.777 21.9387 113.25 20.3333 114.195 19.1458C115.148 17.9504 116.434 17.3528 118.051 17.3528C118.926 17.3528 119.707 17.552 120.394 17.9504C121.082 18.3489 121.598 18.8997 121.941 19.6028H122.141V12.6067H125.047V30.384H122.234V28.3567H122.035C121.668 29.0598 121.133 29.6106 120.43 30.009C119.734 30.3997 118.941 30.595 118.051 30.595ZM121.309 20.9387C120.73 20.1965 119.945 19.8254 118.953 19.8254C117.961 19.8254 117.18 20.1965 116.609 20.9387C116.039 21.6731 115.754 22.6848 115.754 23.9739C115.754 25.2708 116.035 26.2864 116.598 27.0208C117.168 27.7551 117.953 28.1223 118.953 28.1223C119.953 28.1223 120.738 27.7551 121.309 27.0208C121.887 26.2786 122.176 25.2629 122.176 23.9739C122.176 22.6926 121.887 21.6809 121.309 20.9387Z" fill="white"/>
</svg>
